<svg xmlns="http://www.w3.org/2000/svg" viewBox="0 0 591.38 145.51"><defs><style>.cls-1{fill:#fff;}.cls-2{fill:#008aad;}.cls-3{fill:#c2d52f;}</style></defs><title>PICGDQ logo whitefinal</title><g id="Layer_2" data-name="Layer 2"><g id="Layer_1-2" data-name="Layer 1"><path class="cls-1" d="M223.18,65.86q0,11.72-6.53,17.92T197.85,90H184.57V42.65h14.68q11.33,0,17.63,6.09T223.18,65.86Zm-8.18.26q0-17-15.95-17h-6.72V83.47h5.52Q215,83.47,215,66.12Z"/><path class="cls-1" d="M232.11,44.69a4.2,4.2,0,0,1,1.12-3.14,4.39,4.39,0,0,1,3.2-1.1,4.3,4.3,0,0,1,3.13,1.1,4.2,4.2,0,0,1,1.12,3.14,4.1,4.1,0,0,1-1.12,3.06,4.22,4.22,0,0,1-3.13,1.12,4.32,4.32,0,0,1-3.2-1.12A4.1,4.1,0,0,1,232.11,44.69ZM240.19,90h-7.63V54.18h7.63Z"/><path class="cls-1" d="M281.43,54.18v4.17l-6.13,1.14a9.9,9.9,0,0,1,1.39,2.78,10.86,10.86,0,0,1,.55,3.49,10.68,10.68,0,0,1-3.83,8.71q-3.82,3.18-10.55,3.17a16.53,16.53,0,0,1-3.12-.26c-1.64,1-2.47,2.21-2.47,3.56a2,2,0,0,0,1.16,1.85,10,10,0,0,0,4.23.61h6.27c4,0,7,.85,9,2.53A8.88,8.88,0,0,1,281,93.21a10.59,10.59,0,0,1-5,9.39q-5,3.3-14.55,3.3-7.33,0-11.2-2.59a8.36,8.36,0,0,1-3.86-7.38,7.82,7.82,0,0,1,2.09-5.55,11.23,11.23,0,0,1,5.86-3.12,5.72,5.72,0,0,1-2.52-2.09,5.26,5.26,0,0,1-1-3,5.19,5.19,0,0,1,1.14-3.4A13.29,13.29,0,0,1,255.36,76a10,10,0,0,1-4.53-3.9,11.43,11.43,0,0,1-1.74-6.33q0-5.82,3.69-9t10.5-3.2a25.75,25.75,0,0,1,3.2.21,20.74,20.74,0,0,1,2.52.44ZM253.21,95.54a4.2,4.2,0,0,0,2.23,3.79,12.3,12.3,0,0,0,6.25,1.33c4.16,0,7.25-.6,9.29-1.78a5.36,5.36,0,0,0,3-4.73,3.56,3.56,0,0,0-1.67-3.32c-1.12-.66-3.19-1-6.22-1h-5.78a8.14,8.14,0,0,0-5.21,1.53A5,5,0,0,0,253.21,95.54Zm3.28-29.78a7.16,7.16,0,0,0,1.74,5.18,6.59,6.59,0,0,0,5,1.82q6.61,0,6.62-7.06a8,8,0,0,0-1.64-5.39,6.23,6.23,0,0,0-5-1.89,6.45,6.45,0,0,0-5,1.87A7.88,7.88,0,0,0,256.49,65.76Z"/><path class="cls-1" d="M287.63,44.69a4.24,4.24,0,0,1,1.12-3.14,4.41,4.41,0,0,1,3.2-1.1,4.32,4.32,0,0,1,3.14,1.1,4.24,4.24,0,0,1,1.12,3.14,4.14,4.14,0,0,1-1.12,3.06A4.25,4.25,0,0,1,292,48.87a4.33,4.33,0,0,1-3.2-1.12A4.14,4.14,0,0,1,287.63,44.69ZM295.72,90h-7.63V54.18h7.63Z"/><path class="cls-1" d="M320,84.47a18.66,18.66,0,0,0,5.58-.87v5.73a15.9,15.9,0,0,1-3.26.92,22.37,22.37,0,0,1-4.14.37q-10.85,0-10.85-11.39V59.94h-4.9V56.57l5.26-2.78,2.6-7.58H315v8h10.23v5.76H315V79.1a5.36,5.36,0,0,0,1.38,4.06A5,5,0,0,0,320,84.47Z"/><path class="cls-1" d="M355.24,90l-1.53-5h-.26a14.71,14.71,0,0,1-5.22,4.45,16.59,16.59,0,0,1-6.76,1.18q-5.3,0-8.26-2.85t-3-8.06a9.45,9.45,0,0,1,4.12-8.35q4.13-2.81,12.57-3.07l6.2-.2v-1.9a7.26,7.26,0,0,0-1.61-5.14q-1.61-1.69-5-1.69a17.63,17.63,0,0,0-5.3.8,41.37,41.37,0,0,0-4.87,1.91l-2.46-5.43a26.35,26.35,0,0,1,6.39-2.32,29.51,29.51,0,0,1,6.56-.79q6.86,0,10.34,3t3.5,9.35V90ZM343.87,84.8a9.51,9.51,0,0,0,6.68-2.32A8.39,8.39,0,0,0,353.06,76v-3.1l-4.61.19q-5.38.19-7.84,1.8a5.45,5.45,0,0,0-2.45,4.9,4.8,4.8,0,0,0,1.43,3.71A6.16,6.16,0,0,0,343.87,84.8Z"/><path class="cls-1" d="M379,90h-7.63V39.61H379Z"/><path class="cls-1" d="M450.12,66.25q0,8.61-3.29,14.5a18,18,0,0,1-9.6,8.29l11.36,12.2H438.14l-9-10.62h-1.27q-10.74,0-16.51-6.36t-5.77-18.07q0-11.73,5.8-18T428,41.91q10.57,0,16.36,6.38T450.12,66.25Zm-36.24,0q0,8.75,3.54,13.25T427.91,84q6.91,0,10.44-4.47t3.52-13.3q0-8.7-3.49-13.21T428,48.55q-7,0-10.54,4.49T413.88,66.25Z"/><path class="cls-1" d="M484.83,90l-1.07-4.69h-.39a10.83,10.83,0,0,1-4.53,3.92,15.16,15.16,0,0,1-6.7,1.42c-4.36,0-7.6-1.08-9.75-3.23s-3.21-5.43-3.21-9.81V54.18h7.7V76.25q0,4.11,1.68,6.17c1.13,1.37,2.89,2,5.3,2q4.8,0,7.06-2.86c1.5-1.91,2.26-5.11,2.26-9.6V54.18h7.66V90Z"/><path class="cls-1" d="M517.4,90.62q-8.37,0-13.1-4.87t-4.72-13.42q0-8.76,4.38-13.78t12.05-5q7.11,0,11.23,4.3t4.12,11.85v4.11H507.43q.17,5.22,2.83,8t7.5,2.8a27.61,27.61,0,0,0,5.92-.6,31.07,31.07,0,0,0,5.9-2V88.2a23.41,23.41,0,0,1-5.65,1.87A34.54,34.54,0,0,1,517.4,90.62ZM516,59.29a7.68,7.68,0,0,0-5.83,2.3,10.92,10.92,0,0,0-2.62,6.7h16.3c0-3-.76-5.2-2.14-6.72A7.35,7.35,0,0,0,516,59.29Z"/><path class="cls-1" d="M564.16,79.78a9.36,9.36,0,0,1-3.83,8c-2.56,1.87-6.21,2.8-11,2.8s-8.62-.72-11.52-2.17V81.88a28.26,28.26,0,0,0,11.78,2.92c4.7,0,7-1.42,7-4.24a3.35,3.35,0,0,0-.78-2.27,9.34,9.34,0,0,0-2.56-1.88,46.67,46.67,0,0,0-5-2.2q-6.21-2.38-8.4-4.79a8.84,8.84,0,0,1-2.19-6.21,8.15,8.15,0,0,1,3.72-7.14q3.72-2.53,10.11-2.54a28.66,28.66,0,0,1,12,2.56l-2.47,5.73a26.69,26.69,0,0,0-9.78-2.4c-4,0-6,1.14-6,3.43a3.46,3.46,0,0,0,1.58,2.85,34.6,34.6,0,0,0,6.87,3.2A31.81,31.81,0,0,1,560.2,72a8.7,8.7,0,0,1,4,7.74Z"/><path class="cls-1" d="M585.79,84.47a18.66,18.66,0,0,0,5.58-.87v5.73a15.9,15.9,0,0,1-3.26.92,22.37,22.37,0,0,1-4.14.37q-10.85,0-10.85-11.39V59.94h-4.9V56.57l5.26-2.78,2.6-7.58h4.71v8H591v5.76H580.79V79.1a5.36,5.36,0,0,0,1.38,4.06A5,5,0,0,0,585.79,84.47Z"/><path class="cls-2" d="M41.57,109.87V34.58H61q9.54,0,13.85,4.9t4.31,14.44l0,34q0,11.39-4.33,16.69t-14.32,5.3ZM54.76,101h4.33q3.64,0,5.29-2T66,91.39l0-37.17q0-5.86-1.65-8.34c-1.1-1.66-3-2.48-5.68-2.48H54.76Z"/><path class="cls-2" d="M104.47,89.51q0,16.39-10,20.41l8.07,8.21L96,123.05,83.65,111.37q-8.61-.47-13-5.67T66.18,89.51V55.08q0-20.7,19.44-20.7,10,0,14.45,5.26t4.4,15.44ZM80.63,98.88q1.16,2.61,4.75,2.61c2.39,0,4-.89,4.72-2.67s1.13-4.84,1.13-9.18V54.57q0-5.35-1.15-7.81T85.55,44.3a4.93,4.93,0,0,0-4.73,2.46q-1.35,2.46-1.35,7.76V89.64C79.47,94.06,79.85,97.14,80.63,98.88Z"/><polygon class="cls-3" points="0 0 95.09 0 81.46 12.6 12.62 12.6 12.62 83.15 0 96.44 0 0"/><polygon class="cls-3" points="145.52 145.51 50.42 145.51 64.06 132.91 132.9 132.91 132.9 62.36 145.52 49.07 145.52 145.51"/><path class="cls-1" d="M467.77,116.84a4.44,4.44,0,0,1-1.65,3.72,7.45,7.45,0,0,1-4.68,1.29h-2.59v6.91h-1.17V112h4.11Q467.78,112,467.77,116.84Zm-8.92,4h2.31a7,7,0,0,0,4.09-.93,3.53,3.53,0,0,0,1.26-3,3.41,3.41,0,0,0-1.19-2.86,5.93,5.93,0,0,0-3.69-.94h-2.78Z"/><path class="cls-1" d="M478.71,128.76l-.29-2h-.09a6,6,0,0,1-1.93,1.7,5.25,5.25,0,0,1-2.35.5,4.06,4.06,0,0,1-2.86-.94,3.35,3.35,0,0,1-1-2.6,3.2,3.2,0,0,1,1.52-2.82,8.33,8.33,0,0,1,4.4-1.06l2.38-.07v-.82a4.22,4.22,0,0,0-.73-2.68,2.81,2.81,0,0,0-2.33-.9,7.83,7.83,0,0,0-3.59,1l-.42-1a9.53,9.53,0,0,1,4.06-1,4.06,4.06,0,0,1,3.07,1.07,4.62,4.62,0,0,1,1,3.31v8.27Zm-4.59-.8a4.29,4.29,0,0,0,3.15-1.14,4.23,4.23,0,0,0,1.15-3.16v-1.22l-2.18.09a8.28,8.28,0,0,0-3.75.81,2.37,2.37,0,0,0-1.11,2.16,2.33,2.33,0,0,0,.71,1.81A3,3,0,0,0,474.12,128Z"/><path class="cls-1" d="M488.49,116.09a9.45,9.45,0,0,1,1.7.16l-.22,1.09a6.66,6.66,0,0,0-1.62-.2,3.14,3.14,0,0,0-2.61,1.35,5.5,5.5,0,0,0-1,3.41v6.86h-1.14V116.33h1l.11,2.24h.08a5.32,5.32,0,0,1,1.64-1.93A3.86,3.86,0,0,1,488.49,116.09Z"/><path class="cls-1" d="M496,128a8.69,8.69,0,0,0,1.88-.18v.91A5.86,5.86,0,0,1,496,129a3.11,3.11,0,0,1-2.43-.88,4.06,4.06,0,0,1-.79-2.77v-8h-1.85v-.66l1.85-.51.57-2.82h.59v3h3.66v1h-3.66v7.87a3.66,3.66,0,0,0,.5,2.12A1.87,1.87,0,0,0,496,128Z"/><path class="cls-1" d="M517,122.53a7,7,0,0,1-1.48,4.75,5.12,5.12,0,0,1-4.08,1.71,5.39,5.39,0,0,1-2.9-.79,5.07,5.07,0,0,1-1.91-2.26,8.14,8.14,0,0,1-.67-3.41,7,7,0,0,1,1.48-4.74,5.12,5.12,0,0,1,4.06-1.7,5,5,0,0,1,4,1.72A7.09,7.09,0,0,1,517,122.53Zm-9.84,0a6.23,6.23,0,0,0,1.13,4,4.26,4.26,0,0,0,6.39,0,6.29,6.29,0,0,0,1.13-4,6.14,6.14,0,0,0-1.15-4,4.31,4.31,0,0,0-6.39,0A6.33,6.33,0,0,0,507.17,122.53Z"/><path class="cls-1" d="M525.1,117.31h-2.94v11.45H521V117.31h-2.31v-.66l2.31-.42v-1a5.35,5.35,0,0,1,.85-3.36,3.31,3.31,0,0,1,2.76-1.07,7.05,7.05,0,0,1,2.06.31l-.26,1a6.17,6.17,0,0,0-1.83-.28,2.15,2.15,0,0,0-1.88.78,4.42,4.42,0,0,0-.56,2.55v1.15h2.94Z"/><polygon class="cls-1" points="557.59 111.66 557.11 108.73 553.98 107.82 554.34 107.46 557.45 108.38 557.85 110.84 558.55 110.16 558.05 107.78 554.85 106.96 555.2 106.61 558.42 107.42 559.01 110.25 557.59 111.66"/><polygon class="cls-1" points="559.63 109.66 559.02 106.81 555.81 105.99 556.17 105.62 559.4 106.42 560.01 109.28 559.63 109.66"/><path class="cls-1" d="M544.43,121.24c2.22,0,4-2.14,4-4.75s-1.79-4.75-4-4.75H537v-2.37h7.54a7.13,7.13,0,0,1,0,14.25h-4.65v5.11H537v-7.49Z"/><path class="cls-1" d="M553.57,128.73V109.37h2.86v19.36Z"/><path class="cls-1" d="M571.4,125.77l.72,2.29a10.47,10.47,0,0,1-3.83.7,9.7,9.7,0,0,1,0-19.4,10.26,10.26,0,0,1,4,.76l-1.11,2.13a7.28,7.28,0,0,0-2.87-.57c-3.91,0-6.81,3.48-6.81,7.37,0,3.55,2.62,7.39,6.81,7.39A7.58,7.58,0,0,0,571.4,125.77Z"/><path class="cls-1" d="M576.87,119c0,3.55,2.6,7.38,6.78,7.38v2.32a9.69,9.69,0,0,1,0-19.38,9.17,9.17,0,0,1,7,2.9l-1.84,1.84a6.59,6.59,0,0,0-5.17-2.42C579.6,111.67,576.87,114.92,576.87,119Zm14.51-1.14v2.32h-6.75v-2.32Z"/><rect class="cls-1" x="589.06" y="117.89" width="2.32" height="6.75"/></g></g></svg>