<svg xmlns="http://www.w3.org/2000/svg" xmlns:xlink="http://www.w3.org/1999/xlink" viewBox="0 0 476.18 241.65"><defs><style>.cls-1{isolation:isolate;}.cls-2,.cls-6{fill:#089939;}.cls-3,.cls-8{fill:#fff;}.cls-4{fill:#7bb934;}.cls-4,.cls-6,.cls-7,.cls-8{fill-rule:evenodd;}.cls-5{fill:#f6a31d;}.cls-7{fill:#fcbf16;}.cls-9{fill:url(#radial-gradient);}.cls-10{fill:url(#radial-gradient-2);}.cls-11{fill:url(#radial-gradient-3);}.cls-12{fill:url(#radial-gradient-4);}.cls-13{fill:url(#radial-gradient-5);}.cls-14{fill:url(#radial-gradient-6);}.cls-15{fill:url(#radial-gradient-7);}.cls-16{fill:url(#radial-gradient-8);}.cls-17{fill:url(#radial-gradient-9);}.cls-18{fill:url(#radial-gradient-10);}.cls-19{fill:url(#radial-gradient-11);}.cls-20{fill:url(#radial-gradient-12);}.cls-21{mix-blend-mode:multiply;opacity:0.9;}.cls-22{fill:url(#linear-gradient);}.cls-23{fill:url(#linear-gradient-2);}.cls-24{fill:url(#linear-gradient-3);}.cls-25{fill:url(#linear-gradient-4);}.cls-26{fill:url(#linear-gradient-5);}.cls-27{fill:url(#linear-gradient-6);}.cls-28{fill:url(#linear-gradient-7);}.cls-29{fill:url(#linear-gradient-8);}.cls-30{fill:url(#linear-gradient-9);}.cls-31{fill:url(#linear-gradient-10);}.cls-32{fill:url(#linear-gradient-11);}.cls-33{fill:url(#linear-gradient-12);}.cls-34{mix-blend-mode:screen;opacity:0.3;fill:url(#radial-gradient-13);}</style><radialGradient id="radial-gradient" cx="213.91" cy="204.21" r="8.05" gradientUnits="userSpaceOnUse"><stop offset="0" stop-color="#9ac43f"/><stop offset="0.16" stop-color="#89ba3d"/><stop offset="0.46" stop-color="#5b9f39"/><stop offset="0.89" stop-color="#137532"/><stop offset="1" stop-color="#006a30"/></radialGradient><radialGradient id="radial-gradient-2" cx="194.6" cy="217.1" r="4.15" xlink:href="#radial-gradient"/><radialGradient id="radial-gradient-3" cx="189.47" cy="232.05" r="1.25" xlink:href="#radial-gradient"/><radialGradient id="radial-gradient-4" cx="196.42" cy="241.45" r="0.94" xlink:href="#radial-gradient"/><radialGradient id="radial-gradient-5" cx="203.54" cy="243.7" r="0.86" xlink:href="#radial-gradient"/><radialGradient id="radial-gradient-6" cx="222.12" cy="275.53" r="0.79" xlink:href="#radial-gradient"/><radialGradient id="radial-gradient-7" cx="213.55" cy="303.16" r="4.02" xlink:href="#radial-gradient"/><radialGradient id="radial-gradient-8" cx="253.97" cy="279.17" r="1.94" xlink:href="#radial-gradient"/><radialGradient id="radial-gradient-9" cx="270.95" cy="279.68" r="4.23" xlink:href="#radial-gradient"/><radialGradient id="radial-gradient-10" cx="277.31" cy="271.98" r="4.96" xlink:href="#radial-gradient"/><radialGradient id="radial-gradient-11" cx="224.64" cy="256.82" r="52.28" xlink:href="#radial-gradient"/><radialGradient id="radial-gradient-12" cx="218.21" cy="227.08" r="0.06" xlink:href="#radial-gradient"/><linearGradient id="linear-gradient" x1="226.16" y1="187.61" x2="143.58" y2="299.44" gradientUnits="userSpaceOnUse"><stop offset="0" stop-color="#67b546" stop-opacity="0"/><stop offset="0.13" stop-color="#66b546" stop-opacity="0.03"/><stop offset="0.29" stop-color="#62b445" stop-opacity="0.11"/><stop offset="0.46" stop-color="#5bb244" stop-opacity="0.25"/><stop offset="0.63" stop-color="#52af43" stop-opacity="0.44"/><stop offset="0.81" stop-color="#46ac41" stop-opacity="0.69"/><stop offset="1" stop-color="#37a83f" stop-opacity="0.99"/><stop offset="1" stop-color="#37a83f"/></linearGradient><linearGradient id="linear-gradient-2" x1="219.71" y1="182.85" x2="137.13" y2="294.68" xlink:href="#linear-gradient"/><linearGradient id="linear-gradient-3" x1="223.66" y1="185.76" x2="141.08" y2="297.59" xlink:href="#linear-gradient"/><linearGradient id="linear-gradient-4" x1="232.63" y1="192.39" x2="150.05" y2="304.22" xlink:href="#linear-gradient"/><linearGradient id="linear-gradient-5" x1="238.14" y1="196.46" x2="155.56" y2="308.29" xlink:href="#linear-gradient"/><linearGradient id="linear-gradient-6" x1="265.54" y1="216.69" x2="182.96" y2="328.52" xlink:href="#linear-gradient"/><linearGradient id="linear-gradient-7" x1="272.63" y1="221.92" x2="190.05" y2="333.76" xlink:href="#linear-gradient"/><linearGradient id="linear-gradient-8" x1="287.85" y1="233.16" x2="205.27" y2="344.99" xlink:href="#linear-gradient"/><linearGradient id="linear-gradient-9" x1="298.66" y1="241.14" x2="216.08" y2="352.98" xlink:href="#linear-gradient"/><linearGradient id="linear-gradient-10" x1="299.73" y1="241.94" x2="217.15" y2="353.77" xlink:href="#linear-gradient"/><linearGradient id="linear-gradient-11" x1="258.55" y1="211.52" x2="175.97" y2="323.36" xlink:href="#linear-gradient"/><linearGradient id="linear-gradient-12" x1="239.88" y1="197.74" x2="157.29" y2="309.57" xlink:href="#linear-gradient"/><radialGradient id="radial-gradient-13" cx="1401.24" cy="-313.93" r="78.57" gradientTransform="translate(1612.96 -35.61) rotate(180)" gradientUnits="userSpaceOnUse"><stop offset="0.41" stop-color="#fff" stop-opacity="0"/><stop offset="0.61" stop-color="#fff" stop-opacity="0.01"/><stop offset="0.69" stop-color="#fff" stop-opacity="0.04"/><stop offset="0.75" stop-color="#fff" stop-opacity="0.08"/><stop offset="0.8" stop-color="#fff" stop-opacity="0.15"/><stop offset="0.84" stop-color="#fff" stop-opacity="0.24"/><stop offset="0.88" stop-color="#fff" stop-opacity="0.35"/><stop offset="0.91" stop-color="#fff" stop-opacity="0.48"/><stop offset="0.94" stop-color="#fff" stop-opacity="0.64"/><stop offset="0.97" stop-color="#fff" stop-opacity="0.8"/><stop offset="1" stop-color="#fff" stop-opacity="0.99"/><stop offset="1" stop-color="#fff"/></radialGradient></defs><g class="cls-1"><g id="Layer_1" data-name="Layer 1"><path class="cls-2" d="M333.26,255.25v-17.2q0-10.78-.12-12.7a4.93,4.93,0,0,0-.63-2.36,3,3,0,0,0-1.94-1.05,10.72,10.72,0,0,0-2.34-.18q-1,0-1-.54t1.32-.54c1.2,0,2.81,0,4.85.09l3.66.09c.4,0,1.54,0,3.44-.09s3.27-.09,4.11-.09,1.25.18,1.25.54-.36.54-1.07.54a11.11,11.11,0,0,0-1.74.18,2.29,2.29,0,0,0-1.65,1,5.79,5.79,0,0,0-.57,2.39q-.12,1.92-.12,12.7v11.09c0,.84,0,2.19.09,4.07s.09,3.34.09,4.38a32.12,32.12,0,0,1-1.44,10.6q-2.22,6.4-10.18,11.32a31.1,31.1,0,0,1-3,1.56,2.55,2.55,0,0,1-1.2.36.42.42,0,0,1-.48-.48q0-.36,1.32-1.08a13.41,13.41,0,0,0,2.88-2.27,13.62,13.62,0,0,0,3.8-7.55A108.55,108.55,0,0,0,333.26,255.25Z" transform="translate(-117.34 -135.11)"/><path class="cls-2" d="M359.38,248.6V238.05q0-10.78-.12-12.7a4.93,4.93,0,0,0-.63-2.36,3,3,0,0,0-1.94-1.05,10.72,10.72,0,0,0-2.34-.18q-1,0-1-.54t1.32-.54c1.2,0,2.83,0,4.88.09s3.31.09,3.75.09c.8,0,2.2,0,4.22-.09s3.51-.09,4.46-.09q7.5,0,11.15,3.41a9.48,9.48,0,0,1,3,7.13,13.94,13.94,0,0,1-4.16,10.43,14.48,14.48,0,0,1-10.57,4.07,8.14,8.14,0,0,1-1.26-.06q-.72-.12-.72-.54,0-.66,1.68-.66c1.87,0,3.68-.93,5.42-2.81a10,10,0,0,0,2.6-7.07q0-5.81-3.53-9a8.64,8.64,0,0,0-6-2.33,8.13,8.13,0,0,0-2.34.24c-.32.12-.48.5-.48,1.13v24q0,10.25.3,12.82.3,3,2.34,3.24a21.66,21.66,0,0,0,3.05.24q1,0,1,.48c0,.39-.38.59-1.14.59-1.51,0-3.36,0-5.54-.09l-3.74-.09-3.39.09c-1.9.06-3.28.09-4.16.09s-1.2-.2-1.2-.59.32-.48,1-.48a9.93,9.93,0,0,0,2.16-.24c.87-.16,1.45-1.26,1.73-3.3Q359.38,258.84,359.38,248.6Z" transform="translate(-117.34 -135.11)"/><path class="cls-2" d="M405.58,266.81a21.64,21.64,0,0,1-8.75-1.56,1.73,1.73,0,0,1-.93-.68,3.08,3.08,0,0,1-.21-1.35c0-2,.1-4.65.3-7.85q.12-1.56.72-1.56t.6,1a11.46,11.46,0,0,0,.54,3.06q1.78,6,8.56,6.05a8.05,8.05,0,0,0,5.91-2.1,6.52,6.52,0,0,0,2.12-4.73,9.7,9.7,0,0,0-1.2-4.68,17.33,17.33,0,0,0-4.67-4.91l-2.75-2.16a28.67,28.67,0,0,1-6.84-7.1,13.4,13.4,0,0,1-2-7.1,10.1,10.1,0,0,1,3.83-8.14,15.17,15.17,0,0,1,10-3.18,30.49,30.49,0,0,1,8,1c.56.12.83.36.83.72q0,.24-.06,1.08c0,.56-.08,1.37-.11,2.45s-.06,2.3-.06,3.66q0,1.8-.66,1.8t-.6-1.08a6.23,6.23,0,0,0-1.56-4A7.9,7.9,0,0,0,410,222.6a7.57,7.57,0,0,0-5.21,1.7,5.7,5.7,0,0,0-1.92,4.47,6.73,6.73,0,0,0,1.35,4,24.33,24.33,0,0,0,5,4.65l1.68,1.25a32.12,32.12,0,0,1,7.61,7.52,14.11,14.11,0,0,1,2.21,7.76,11.7,11.7,0,0,1-5.63,10.43A17.38,17.38,0,0,1,405.58,266.81Z" transform="translate(-117.34 -135.11)"/><path class="cls-2" d="M369.63,312.06v6.59a5.81,5.81,0,0,1-.12,1.53,1.34,1.34,0,0,1-.66.63q-5.16,2.7-14.44,2.7a38.39,38.39,0,0,1-10.54-1.38,28.56,28.56,0,0,1-8.75-4.13,19.09,19.09,0,0,1-6.14-7.37A23.92,23.92,0,0,1,326.73,300a22.94,22.94,0,0,1,3-11.83,21.35,21.35,0,0,1,7.46-7.76,24.48,24.48,0,0,1,7.7-3.12,42,42,0,0,1,8.41-.77,55,55,0,0,1,10.61.95,32.25,32.25,0,0,0,4.73.66q.84.06.84.72s0,.38-.12,1-.15,1.72-.21,3.23-.09,3.38-.09,5.58q0,1.26-.66,1.26-.48,0-.6-.78a8.77,8.77,0,0,0-2-5,15.53,15.53,0,0,0-5.21-3.2,21.05,21.05,0,0,0-8.15-1.47q-7.37,0-11.86,3.72-5.5,4.61-5.51,14.67,0,9.82,5.75,16.18t15.1,6.35a13.58,13.58,0,0,0,5.09-.66,2.2,2.2,0,0,0,1.14-2.21v-5.64q0-5.26-.06-7.07a4.43,4.43,0,0,0-.6-2.33,3,3,0,0,0-2-1.08,10.62,10.62,0,0,0-2.33-.18q-.9,0-.9-.48t1.26-.6c1.15,0,2.77,0,4.85.09s3.35.09,3.83.09,1.75,0,3.45-.09,2.88-.09,3.56-.09,1.2.2,1.2.6-.26.48-.78.48a10.6,10.6,0,0,0-1.61.18c-1.48.28-2.24,1.42-2.28,3.41Q369.63,306.67,369.63,312.06Z" transform="translate(-117.34 -135.11)"/><path class="cls-2" d="M395,294.75v10.54c0,4.52.07,7.67.21,9.47s.49,2.94,1.05,3.41c1,.88,3.41,1.32,7.25,1.32a24.88,24.88,0,0,0,4.43-.3,4.71,4.71,0,0,0,2.58-1.37,6.18,6.18,0,0,0,1.56-3.6q.12-.9.66-.9c.31,0,.47.34.47,1,0,.48-.1,1.56-.29,3.24a32,32,0,0,1-.6,3.65,2,2,0,0,1-.9,1.32,8.23,8.23,0,0,1-2.88.3q-2,0-10.12-.18-4.08-.18-7.31-.18-2,0-3.42.06-.72,0-2.13.06c-.93,0-1.6.06-2,.06q-1.2,0-1.2-.6t1-.48a9.77,9.77,0,0,0,2.15-.24q1.32-.24,1.74-3.3.3-2.51.3-12.76V294.75q0-10.78-.12-12.7a5,5,0,0,0-.63-2.37,3,3,0,0,0-1.94-1.05,8.54,8.54,0,0,0-2-.18q-1,0-1-.54t1.32-.54c1,0,2.55,0,4.55.09s3.22.09,3.66.09l3.74-.09c2.1-.06,3.57-.09,4.4-.09s1.26.18,1.26.54-.36.54-1.08.54a14.22,14.22,0,0,0-2.33.18,2.29,2.29,0,0,0-1.65,1,5.84,5.84,0,0,0-.57,2.4Q395,284,395,294.75Z" transform="translate(-117.34 -135.11)"/><path class="cls-2" d="M442.3,323.51a26.61,26.61,0,0,1-11-2.16,19.64,19.64,0,0,1-7.58-5.66,25.9,25.9,0,0,1-4.16-7.49,24.35,24.35,0,0,1-1.41-8.18,25.08,25.08,0,0,1,.84-6.38,23.78,23.78,0,0,1,2.72-6.32,22.31,22.31,0,0,1,4.68-5.48,21.54,21.54,0,0,1,7-3.84,28.81,28.81,0,0,1,9.46-1.46q11.14,0,17.68,6t6.53,16.35a24.24,24.24,0,0,1-6.8,17.56Q453.5,323.51,442.3,323.51Zm2.52-3a14.45,14.45,0,0,0,3.08-.33,12.91,12.91,0,0,0,3.6-1.53,11.68,11.68,0,0,0,3.56-3.17,17.74,17.74,0,0,0,2.58-5.69,31.07,31.07,0,0,0,1.08-8.63q0-9.82-5-15.79a15.74,15.74,0,0,0-12.56-6,15.45,15.45,0,0,0-5.24.87,14.25,14.25,0,0,0-4.67,2.88,13.26,13.26,0,0,0-3.54,5.84,29.13,29.13,0,0,0-1.28,9.16q0,9.64,5,16A16.18,16.18,0,0,0,444.82,320.51Z" transform="translate(-117.34 -135.11)"/><path class="cls-2" d="M480.83,305.29V294.75q0-10.78-.12-12.7a5,5,0,0,0-.63-2.37,3,3,0,0,0-1.95-1.05,10.72,10.72,0,0,0-2.34-.18q-1,0-1-.54t1.32-.54q1.86,0,4.83.09l3.32.09q1.56,0,4-.09c1.61-.06,2.72-.09,3.32-.09a20.14,20.14,0,0,1,6.53.93,8.78,8.78,0,0,1,4,2.43,10.27,10.27,0,0,1,1.76,2.85,7.74,7.74,0,0,1,.51,2.78,10.13,10.13,0,0,1-1.59,5.75,20.87,20.87,0,0,1-4.52,4.74,19.22,19.22,0,0,1,7.64,4.82,11.14,11.14,0,0,1,3.27,8.12A12.18,12.18,0,0,1,505,319q-4.12,3.9-11.86,3.9-.36,0-1.89-.09t-2.31-.09c-1.79-.12-3.29-.18-4.49-.18s-2.46,0-3.41.06q-.72,0-2.13.06t-2,.06q-1.2,0-1.2-.6t1-.48a9.93,9.93,0,0,0,2.16-.24q1.32-.24,1.74-3.3Q480.83,315.54,480.83,305.29ZM488,281v14.8a.6.6,0,0,0,.42.66,14.46,14.46,0,0,0,2.81.18,6.57,6.57,0,0,0,4.32-1.14q2.44-2,2.45-6.35a11.07,11.07,0,0,0-2-6.38,6.28,6.28,0,0,0-5.51-2.91,11.15,11.15,0,0,0-2,.12Q488,280.13,488,281Zm13.72,31.51q0-7.85-5.82-11.92a9.48,9.48,0,0,0-5-1.44c-.72,0-1.58-.06-2.57-.06q-.36,0-.36.42v14.2a15.29,15.29,0,0,0,.36,4.16,2.68,2.68,0,0,0,1.73,1.59,11.52,11.52,0,0,0,4.38.72,7.94,7.94,0,0,0,5-1.77Q501.74,316.63,501.74,312.48Z" transform="translate(-117.34 -135.11)"/><path class="cls-2" d="M540.44,307H527.08q-.36,0-.54.48l-3.24,8.57a10.2,10.2,0,0,0-.9,3.65q0,1.86,2.4,1.86h.9q.9,0,.9.48t-1,.6q-1,0-3.21-.09c-1.49-.06-2.54-.09-3.14-.09l-2.58.12c-1.75,0-3.25.06-4.49.06q-1.14,0-1.14-.6t.72-.48a15,15,0,0,0,1.86-.12,4.44,4.44,0,0,0,3-1.53,14.44,14.44,0,0,0,2.1-3.86l15-37.63a14.62,14.62,0,0,1,.93-1.88.92.92,0,0,1,.75-.51c.43,0,.93.64,1.49,1.91q.6,1.38,6.68,16.63t8.18,20.22q2.46,5.87,5.27,6.53a12.83,12.83,0,0,0,2.52.24q.78,0,.78.48t-2.76.6c-4.35,0-8.13,0-11.32-.12q-1.8-.12-1.8-.48t.84-.54a.9.9,0,0,0,.54-.51,1.09,1.09,0,0,0,0-.87L541,307.45A.62.62,0,0,0,540.44,307Zm-12.16-3h11q.42,0,.3-.36l-5.39-14.8q-.12-.54-.3-.54t-.36.54L528,303.62Q527.92,304,528.28,304Z" transform="translate(-117.34 -135.11)"/><path class="cls-2" d="M575.31,294.75v10.54c0,4.52.07,7.67.21,9.47s.49,2.94,1.05,3.41q1.48,1.32,7.25,1.32a25,25,0,0,0,4.43-.3,4.71,4.71,0,0,0,2.58-1.37,6.23,6.23,0,0,0,1.55-3.6q.12-.9.66-.9t.48,1q0,.72-.3,3.24a29.9,29.9,0,0,1-.6,3.65,2,2,0,0,1-.9,1.32,8.16,8.16,0,0,1-2.87.3q-2,0-10.13-.18-4.07-.18-7.31-.18c-1.31,0-2.45,0-3.41.06q-.72,0-2.13.06t-2,.06c-.8,0-1.19-.2-1.19-.6s.32-.48,1-.48a9.93,9.93,0,0,0,2.16-.24q1.32-.24,1.74-3.3.3-2.51.3-12.76V294.75q0-10.78-.12-12.7a5,5,0,0,0-.63-2.37,3,3,0,0,0-2-1.05,8.51,8.51,0,0,0-2-.18q-1,0-1-.54c0-.36.44-.54,1.31-.54q1.56,0,4.56.09c2,.06,3.21.09,3.65.09l3.75-.09c2.09-.06,3.56-.09,4.4-.09s1.26.18,1.26.54-.36.54-1.08.54a14.26,14.26,0,0,0-2.34.18,2.27,2.27,0,0,0-1.64,1,5.84,5.84,0,0,0-.57,2.4Q575.31,284,575.31,294.75Z" transform="translate(-117.34 -135.11)"/><rect class="cls-2" y="202.55" width="476.18" height="39.1"/><path class="cls-3" d="M153.35,355.1a11.91,11.91,0,0,1-1.3,5.85,8.22,8.22,0,0,1-3.74,3.54,13.53,13.53,0,0,1-5.94,1.18h-5.69V344.92H143a12.15,12.15,0,0,1,5.49,1.15,8.24,8.24,0,0,1,3.58,3.43A11.34,11.34,0,0,1,153.35,355.1Zm-3.06.08a9.94,9.94,0,0,0-.86-4.4,5.72,5.72,0,0,0-2.54-2.58,9.12,9.12,0,0,0-4.11-.84h-3.19V363.2h2.68q4,0,6-2C149.63,359.84,150.29,357.84,150.29,355.18Z" transform="translate(-117.34 -135.11)"/><path class="cls-3" d="M159,344.11a1.8,1.8,0,0,1,1.17.39,2,2,0,0,1,0,2.6,1.91,1.91,0,0,1-2.34,0,2,2,0,0,1,0-2.6A1.8,1.8,0,0,1,159,344.11Zm1.41,5.92v15.64h-2.86V350Z" transform="translate(-117.34 -135.11)"/><path class="cls-3" d="M175.58,361.3a4.26,4.26,0,0,1-.75,2.56,4.43,4.43,0,0,1-2.16,1.57,9.85,9.85,0,0,1-3.41.53,14.54,14.54,0,0,1-2.84-.25,9.78,9.78,0,0,1-2.16-.72v-2.53a13.59,13.59,0,0,0,2.4.88,9.69,9.69,0,0,0,2.67.39,4.75,4.75,0,0,0,2.65-.58,1.86,1.86,0,0,0,.82-1.58,1.69,1.69,0,0,0-.33-1,3.39,3.39,0,0,0-1.14-.89,19.11,19.11,0,0,0-2.34-1,22.39,22.39,0,0,1-2.55-1.17,4.55,4.55,0,0,1-1.61-1.4,3.74,3.74,0,0,1-.55-2.13,3.48,3.48,0,0,1,1.62-3.1,7.67,7.67,0,0,1,4.3-1.08,12,12,0,0,1,2.67.29,13.08,13.08,0,0,1,2.41.79l-.92,2.2a16.81,16.81,0,0,0-2.1-.73,8.63,8.63,0,0,0-2.2-.29,4.4,4.4,0,0,0-2.24.47,1.43,1.43,0,0,0-.77,1.29,1.61,1.61,0,0,0,.36,1.07,3.65,3.65,0,0,0,1.21.83c.57.27,1.34.59,2.3,1a17.17,17.17,0,0,1,2.48,1.12,4.57,4.57,0,0,1,1.61,1.42A3.7,3.7,0,0,1,175.58,361.3Z" transform="translate(-117.34 -135.11)"/><path class="cls-3" d="M185.56,366a7.87,7.87,0,0,1-3.78-.87,5.85,5.85,0,0,1-2.5-2.65,11.84,11.84,0,0,1,.06-9.15,6.09,6.09,0,0,1,2.63-2.68,8.31,8.31,0,0,1,3.86-.87,10.68,10.68,0,0,1,2.39.26,8,8,0,0,1,1.87.64l-.85,2.31a15.1,15.1,0,0,0-1.72-.55,6.85,6.85,0,0,0-1.73-.24,4.41,4.41,0,0,0-2.5.66,4,4,0,0,0-1.48,1.94,8.74,8.74,0,0,0-.5,3.15,8.63,8.63,0,0,0,.49,3.07,4,4,0,0,0,1.45,1.91,4.12,4.12,0,0,0,2.39.65,8.42,8.42,0,0,0,2.28-.28,9.89,9.89,0,0,0,1.85-.72v2.51a6.85,6.85,0,0,1-1.81.68A11,11,0,0,1,185.56,366Z" transform="translate(-117.34 -135.11)"/><path class="cls-3" d="M207.12,357.82a10.69,10.69,0,0,1-.5,3.44,7.06,7.06,0,0,1-1.46,2.56,6.21,6.21,0,0,1-2.31,1.59,8.17,8.17,0,0,1-3,.55,7.71,7.71,0,0,1-2.92-.55,6.3,6.3,0,0,1-2.29-1.59,7.12,7.12,0,0,1-1.49-2.56,10.4,10.4,0,0,1-.53-3.44,9.92,9.92,0,0,1,.88-4.38,6.29,6.29,0,0,1,2.52-2.75,7.73,7.73,0,0,1,3.91-.95,7.31,7.31,0,0,1,3.79,1,6.39,6.39,0,0,1,2.54,2.75A9.57,9.57,0,0,1,207.12,357.82Zm-11.62,0a9.21,9.21,0,0,0,.46,3.1,4,4,0,0,0,1.42,2,4.75,4.75,0,0,0,4.93,0,4,4,0,0,0,1.42-2,9.48,9.48,0,0,0,.45-3.1,9.23,9.23,0,0,0-.45-3.06,3.86,3.86,0,0,0-1.41-2,4.17,4.17,0,0,0-2.49-.68,3.71,3.71,0,0,0-3.29,1.49A7.26,7.26,0,0,0,195.5,357.82Z" transform="translate(-117.34 -135.11)"/><path class="cls-3" d="M214.59,365.67l-6-15.64h3l3.33,9.33c.22.61.44,1.28.65,2a14.88,14.88,0,0,1,.43,1.8h.1c.09-.48.26-1.08.48-1.81s.45-1.4.66-2l3.32-9.33h3l-6,15.64Z" transform="translate(-117.34 -135.11)"/><path class="cls-3" d="M232.24,349.74a6.71,6.71,0,0,1,3.5.88,5.71,5.71,0,0,1,2.25,2.46,8.43,8.43,0,0,1,.78,3.75v1.62H228.15a5.61,5.61,0,0,0,1.29,3.85,4.53,4.53,0,0,0,3.51,1.34,11.17,11.17,0,0,0,2.65-.28,14.56,14.56,0,0,0,2.42-.84v2.4a11.57,11.57,0,0,1-2.37.79,14.36,14.36,0,0,1-2.83.25,8.44,8.44,0,0,1-4-.91,6.34,6.34,0,0,1-2.66-2.69,9.18,9.18,0,0,1-1-4.4,10.28,10.28,0,0,1,.87-4.42,6.55,6.55,0,0,1,2.44-2.82A6.92,6.92,0,0,1,232.24,349.74Zm0,2.22a3.6,3.6,0,0,0-2.78,1.13,5.26,5.26,0,0,0-1.23,3.23h7.69a6.3,6.3,0,0,0-.41-2.27,3.38,3.38,0,0,0-1.2-1.54A3.56,3.56,0,0,0,232.22,352Z" transform="translate(-117.34 -135.11)"/><path class="cls-3" d="M250.17,349.74c.28,0,.59,0,.92.05l.85.12-.29,2.66a5.36,5.36,0,0,0-.79-.14,6.35,6.35,0,0,0-.83-.06,4.46,4.46,0,0,0-1.74.34,4.31,4.31,0,0,0-1.44,1,4.41,4.41,0,0,0-1,1.57,5.87,5.87,0,0,0-.36,2.13v8.27h-2.87V350h2.3l.34,2.82h.13a7.67,7.67,0,0,1,1.17-1.56,5.42,5.42,0,0,1,1.59-1.13A4.68,4.68,0,0,1,250.17,349.74Z" transform="translate(-117.34 -135.11)"/><path class="cls-3" d="M267.86,363.64a7.37,7.37,0,0,0,1.23-.1,7,7,0,0,0,1.08-.28v2.19a6.13,6.13,0,0,1-1.28.36,8.93,8.93,0,0,1-1.64.15,6,6,0,0,1-2.32-.44,3.48,3.48,0,0,1-1.65-1.51,5.91,5.91,0,0,1-.62-2.95v-8.83h-2.17v-1.32l2.27-1.05,1-3.38h1.76V350h4.53v2.2h-4.53V361a2.74,2.74,0,0,0,.63,2A2.28,2.28,0,0,0,267.86,363.64Z" transform="translate(-117.34 -135.11)"/><path class="cls-3" d="M276.19,343.58v6.08c0,.48,0,1,0,1.42s-.06.85-.1,1.16h.17a4.77,4.77,0,0,1,1.23-1.37,5.26,5.26,0,0,1,1.66-.82,6.65,6.65,0,0,1,2-.28,7.15,7.15,0,0,1,3.09.6,4.1,4.1,0,0,1,1.92,1.85,7.13,7.13,0,0,1,.65,3.26v10.19h-2.83v-9.81a4.18,4.18,0,0,0-.82-2.82,3.21,3.21,0,0,0-2.53-.94,4.56,4.56,0,0,0-2.58.65,3.56,3.56,0,0,0-1.38,1.89,10,10,0,0,0-.41,3.07v8h-2.85V343.58Z" transform="translate(-117.34 -135.11)"/><path class="cls-3" d="M297.63,349.74a6.77,6.77,0,0,1,3.51.88,5.75,5.75,0,0,1,2.24,2.46,8.43,8.43,0,0,1,.78,3.75v1.62H293.54a5.61,5.61,0,0,0,1.29,3.85,4.53,4.53,0,0,0,3.51,1.34,11.17,11.17,0,0,0,2.65-.28,14.56,14.56,0,0,0,2.42-.84v2.4a11.57,11.57,0,0,1-2.37.79,14.36,14.36,0,0,1-2.83.25,8.44,8.44,0,0,1-4-.91,6.34,6.34,0,0,1-2.66-2.69,9.18,9.18,0,0,1-.95-4.4,10.28,10.28,0,0,1,.86-4.42,6.55,6.55,0,0,1,2.44-2.82A6.92,6.92,0,0,1,297.63,349.74Zm0,2.22a3.6,3.6,0,0,0-2.78,1.13,5.26,5.26,0,0,0-1.23,3.23h7.69a6.3,6.3,0,0,0-.41-2.27,3.38,3.38,0,0,0-1.2-1.54A3.54,3.54,0,0,0,297.61,352Z" transform="translate(-117.34 -135.11)"/><path class="cls-3" d="M328.35,365.64,326,357.47c-.11-.37-.22-.78-.34-1.22l-.35-1.34c-.11-.44-.21-.86-.3-1.24s-.16-.69-.21-.93h-.11c-.05.24-.11.55-.2.93s-.18.8-.29,1.25-.22.9-.34,1.35-.24.87-.35,1.24l-2.5,8.13h-3.15L313.49,350h2.91l2.14,8.2c.14.54.28,1.11.41,1.7s.25,1.14.34,1.66.17,1,.22,1.33h.11c.05-.24.11-.55.18-.91s.15-.75.23-1.15.18-.79.28-1.17.19-.71.28-1l2.64-8.66h3.09l2.54,8.65c.12.42.25.88.39,1.4s.25,1,.35,1.52a12.7,12.7,0,0,1,.21,1.3h.12c0-.33.11-.74.21-1.25s.22-1.07.35-1.67.28-1.19.43-1.75l2.17-8.2H336l-4.37,15.63Z" transform="translate(-117.34 -135.11)"/><path class="cls-3" d="M352.39,357.82a10.68,10.68,0,0,1-.51,3.44,6.92,6.92,0,0,1-1.46,2.56,6.21,6.21,0,0,1-2.31,1.59,8.13,8.13,0,0,1-3.05.55,7.71,7.71,0,0,1-2.92-.55,6.3,6.3,0,0,1-2.29-1.59,7.26,7.26,0,0,1-1.49-2.56,10.4,10.4,0,0,1-.53-3.44,10.06,10.06,0,0,1,.88-4.38,6.29,6.29,0,0,1,2.52-2.75,7.74,7.74,0,0,1,3.92-.95,7.36,7.36,0,0,1,3.79,1,6.52,6.52,0,0,1,2.54,2.75A9.7,9.7,0,0,1,352.39,357.82Zm-11.63,0a9.21,9.21,0,0,0,.46,3.1,4,4,0,0,0,1.42,2,4.75,4.75,0,0,0,4.93,0,3.93,3.93,0,0,0,1.42-2,9.21,9.21,0,0,0,.46-3.1,9,9,0,0,0-.46-3.06,3.86,3.86,0,0,0-1.41-2,4.17,4.17,0,0,0-2.49-.68,3.72,3.72,0,0,0-3.29,1.49A7.34,7.34,0,0,0,340.76,357.82Z" transform="translate(-117.34 -135.11)"/><path class="cls-3" d="M363.86,349.74c.28,0,.59,0,.92.05l.85.12-.3,2.66a5,5,0,0,0-.78-.14,6.38,6.38,0,0,0-.84-.06,4.45,4.45,0,0,0-1.73.34,4.35,4.35,0,0,0-1.45,1,4.53,4.53,0,0,0-1,1.57,5.87,5.87,0,0,0-.36,2.13v8.27h-2.87V350h2.3l.34,2.82h.13a7.67,7.67,0,0,1,1.17-1.56,5.42,5.42,0,0,1,1.59-1.13A4.68,4.68,0,0,1,363.86,349.74Z" transform="translate(-117.34 -135.11)"/><path class="cls-3" d="M371.41,365.67h-2.87V343.58h2.87Z" transform="translate(-117.34 -135.11)"/><path class="cls-3" d="M381.67,366a5.68,5.68,0,0,1-4.57-2c-1.14-1.36-1.72-3.36-1.72-6s.58-4.72,1.74-6.1a5.74,5.74,0,0,1,4.63-2.07,6.19,6.19,0,0,1,2.11.33,5.27,5.27,0,0,1,1.57.87,5.08,5.08,0,0,1,1.1,1.22h.17c-.05-.3-.09-.71-.14-1.24s-.07-1-.07-1.39v-5.95h2.85v22.09h-2.26l-.47-2.17h-.12a5.31,5.31,0,0,1-1.09,1.24,4.85,4.85,0,0,1-1.58.89A6.31,6.31,0,0,1,381.67,366Zm.67-2.33a3.75,3.75,0,0,0,3.27-1.34,6.83,6.83,0,0,0,1-4v-.44a8.29,8.29,0,0,0-.92-4.29,3.61,3.61,0,0,0-3.36-1.5,3.33,3.33,0,0,0-3,1.56,7.86,7.86,0,0,0-1,4.3,7.4,7.4,0,0,0,1,4.2A3.42,3.42,0,0,0,382.34,363.63Z" transform="translate(-117.34 -135.11)"/><path class="cls-3" d="M403.21,344.11a1.8,1.8,0,0,1,1.17.39,2,2,0,0,1,0,2.6,1.91,1.91,0,0,1-2.34,0,2,2,0,0,1,0-2.6A1.8,1.8,0,0,1,403.21,344.11Zm1.41,5.92v15.64h-2.86V350Z" transform="translate(-117.34 -135.11)"/><path class="cls-3" d="M417.27,349.74a5.86,5.86,0,0,1,4.16,1.37,5.74,5.74,0,0,1,1.46,4.37v10.19h-2.83v-9.81a4.18,4.18,0,0,0-.82-2.82,3.21,3.21,0,0,0-2.53-.94,3.82,3.82,0,0,0-3.4,1.43,7.42,7.42,0,0,0-1,4.16v8h-2.85V350h2.25l.41,2.2h.16a4.62,4.62,0,0,1,1.26-1.38,5.83,5.83,0,0,1,1.72-.83A7.07,7.07,0,0,1,417.27,349.74Z" transform="translate(-117.34 -135.11)"/><path class="cls-3" d="M441.33,349.74a6.77,6.77,0,0,1,3.51.88,5.75,5.75,0,0,1,2.24,2.46,8.43,8.43,0,0,1,.78,3.75v1.62H437.24a5.61,5.61,0,0,0,1.29,3.85,4.55,4.55,0,0,0,3.51,1.34,11.17,11.17,0,0,0,2.65-.28,14.56,14.56,0,0,0,2.42-.84v2.4a11.57,11.57,0,0,1-2.37.79,14.36,14.36,0,0,1-2.83.25,8.44,8.44,0,0,1-4-.91,6.34,6.34,0,0,1-2.66-2.69,9.18,9.18,0,0,1-.95-4.4,10.28,10.28,0,0,1,.86-4.42,6.55,6.55,0,0,1,2.44-2.82A6.92,6.92,0,0,1,441.33,349.74Zm0,2.22a3.6,3.6,0,0,0-2.79,1.13,5.26,5.26,0,0,0-1.23,3.23H445a6.09,6.09,0,0,0-.41-2.27,3.26,3.26,0,0,0-1.2-1.54A3.53,3.53,0,0,0,441.32,352Z" transform="translate(-117.34 -135.11)"/><path class="cls-3" d="M455.26,365.67,449.31,350h3l3.34,9.33c.22.61.43,1.28.64,2a15.22,15.22,0,0,1,.44,1.8h.1a16.22,16.22,0,0,1,.48-1.81c.23-.73.44-1.4.65-2L461.3,350h3l-6,15.64Z" transform="translate(-117.34 -135.11)"/><path class="cls-3" d="M472.9,349.74a6.72,6.72,0,0,1,3.51.88,5.75,5.75,0,0,1,2.24,2.46,8.43,8.43,0,0,1,.78,3.75v1.62H468.82a5.51,5.51,0,0,0,1.29,3.85,4.52,4.52,0,0,0,3.5,1.34,11.25,11.25,0,0,0,2.66-.28,14.46,14.46,0,0,0,2.41-.84v2.4a11.29,11.29,0,0,1-2.36.79,14.44,14.44,0,0,1-2.83.25,8.45,8.45,0,0,1-4-.91,6.39,6.39,0,0,1-2.66-2.69,9.3,9.3,0,0,1-.95-4.4,10.28,10.28,0,0,1,.87-4.42,6.49,6.49,0,0,1,2.44-2.82A6.88,6.88,0,0,1,472.9,349.74Zm0,2.22a3.58,3.58,0,0,0-2.78,1.13,5.26,5.26,0,0,0-1.24,3.23h7.7a6.08,6.08,0,0,0-.42-2.27,3.3,3.3,0,0,0-1.19-1.54A3.58,3.58,0,0,0,472.89,352Z" transform="translate(-117.34 -135.11)"/><path class="cls-3" d="M490.83,349.74c.29,0,.6,0,.93.05l.85.12-.3,2.66a5.13,5.13,0,0,0-.79-.14,6.23,6.23,0,0,0-.83-.06,4.45,4.45,0,0,0-1.73.34,4.35,4.35,0,0,0-1.45,1,4.71,4.71,0,0,0-1,1.57,6.1,6.1,0,0,0-.35,2.13v8.27h-2.87V350h2.3l.34,2.82h.13a7.67,7.67,0,0,1,1.17-1.56,5.42,5.42,0,0,1,1.59-1.13A4.67,4.67,0,0,1,490.83,349.74Z" transform="translate(-117.34 -135.11)"/><path class="cls-3" d="M493.12,350h3.08l3.32,9c.17.47.33.92.48,1.36s.27.86.38,1.28a10.92,10.92,0,0,1,.26,1.21h.1c.12-.48.28-1.07.49-1.76s.43-1.39.68-2.1l3.18-9h3.06l-6.75,17.86a10.62,10.62,0,0,1-1.34,2.56,5.62,5.62,0,0,1-1.87,1.65,5.4,5.4,0,0,1-2.56.57,7.23,7.23,0,0,1-1.2-.08c-.34,0-.64-.11-.88-.17v-2.28a7.36,7.36,0,0,0,.76.13,6.81,6.81,0,0,0,.93.06,3.06,3.06,0,0,0,2.64-1.33,6.24,6.24,0,0,0,.78-1.5l.71-1.84Z" transform="translate(-117.34 -135.11)"/><path class="cls-3" d="M521,343.58V349c0,.62,0,1.23,0,1.83s-.06,1.05-.09,1.37H521a5.4,5.4,0,0,1,1.81-1.74,5.79,5.79,0,0,1,3-.71,5.71,5.71,0,0,1,4.57,2c1.14,1.36,1.72,3.38,1.72,6a11.25,11.25,0,0,1-.79,4.45,5.75,5.75,0,0,1-5.58,3.67,5.71,5.71,0,0,1-3-.68,5.47,5.47,0,0,1-1.78-1.61h-.21l-.54,2h-2.11V343.58Zm4.19,8.52a4.39,4.39,0,0,0-2.47.61,3.38,3.38,0,0,0-1.31,1.85,10.75,10.75,0,0,0-.41,3.11v.21a8.18,8.18,0,0,0,.91,4.26,3.54,3.54,0,0,0,3.29,1.47,3.37,3.37,0,0,0,3-1.5,7.72,7.72,0,0,0,1-4.3,7.49,7.49,0,0,0-1-4.28A3.43,3.43,0,0,0,525.18,352.1Z" transform="translate(-117.34 -135.11)"/><path class="cls-3" d="M537.53,344.11a1.83,1.83,0,0,1,1.17.39,2,2,0,0,1,0,2.6,1.79,1.79,0,0,1-1.17.4,1.71,1.71,0,0,1-1.17-.4,2,2,0,0,1,0-2.6A1.76,1.76,0,0,1,537.53,344.11Zm1.4,5.92v15.64h-2.85V350Z" transform="translate(-117.34 -135.11)"/><path class="cls-3" d="M549.25,363.64a7.49,7.49,0,0,0,1.24-.1,7,7,0,0,0,1.08-.28v2.19a6.06,6.06,0,0,1-1.29.36,8.85,8.85,0,0,1-1.64.15,5.91,5.91,0,0,1-2.31-.44,3.48,3.48,0,0,1-1.65-1.51,5.81,5.81,0,0,1-.62-2.95v-8.83h-2.17v-1.32l2.27-1.05,1-3.38h1.76V350h4.53v2.2h-4.53V361a2.74,2.74,0,0,0,.63,2A2.25,2.25,0,0,0,549.25,363.64Z" transform="translate(-117.34 -135.11)"/><path class="cls-3" d="M560.87,349.74a6.71,6.71,0,0,1,3.5.88,5.71,5.71,0,0,1,2.25,2.46,8.43,8.43,0,0,1,.78,3.75v1.62H556.78a5.61,5.61,0,0,0,1.29,3.85,4.53,4.53,0,0,0,3.51,1.34,11.17,11.17,0,0,0,2.65-.28,14.56,14.56,0,0,0,2.42-.84v2.4a11.57,11.57,0,0,1-2.37.79,14.36,14.36,0,0,1-2.83.25,8.44,8.44,0,0,1-4-.91,6.34,6.34,0,0,1-2.66-2.69,9.18,9.18,0,0,1-1-4.4,10.28,10.28,0,0,1,.87-4.42,6.55,6.55,0,0,1,2.44-2.82A6.92,6.92,0,0,1,560.87,349.74Zm0,2.22a3.6,3.6,0,0,0-2.78,1.13,5.26,5.26,0,0,0-1.23,3.23h7.69a6.3,6.3,0,0,0-.41-2.27,3.38,3.38,0,0,0-1.2-1.54A3.56,3.56,0,0,0,560.85,352Z" transform="translate(-117.34 -135.11)"/><path class="cls-3" d="M570.86,364.05a1.84,1.84,0,0,1,.55-1.52,2,2,0,0,1,1.34-.45,2.07,2.07,0,0,1,1.34.45,1.87,1.87,0,0,1,.55,1.52,1.79,1.79,0,0,1-1.89,2,1.79,1.79,0,0,1-1.89-2Zm2.93-4.43h-2l-.67-14.7h3.36Z" transform="translate(-117.34 -135.11)"/><path class="cls-4" d="M174,317.71a1.25,1.25,0,0,1,.66-.23c.41,0,.83-.06,1.25-.07a17.57,17.57,0,0,1,8.24.52c-7-12.84-15.22-19.39-20.3-33.78-4.55-12.93-5.2-27.55,1-41.26.74-1.64,1.56-3.22,2.43-4.76a59.22,59.22,0,0,0-5.67,9.88,57.84,57.84,0,0,0,5.7,57.85A75.93,75.93,0,0,1,174,317.71Z" transform="translate(-117.34 -135.11)"/><path class="cls-5" d="M171.91,307.61l6.5.32C131,260.62,152.72,198.47,210.92,176.78c-58.27,15.62-84.83,87.66-39,130.83Z" transform="translate(-117.34 -135.11)"/><path class="cls-6" d="M142.8,289.56A84.55,84.55,0,0,0,288,282.12c-1.4,1.47-2.95,3.06-4.66,4.8l0,0c-4.31,4.82-10.49,10-19.87,16.21-26.77,17.8-79.4,22.58-109-21.93-26.39-39.7-14.56-91.28,26-116.43-48.68,20.49-67.2,80.37-37.67,124.77Z" transform="translate(-117.34 -135.11)"/><path class="cls-7" d="M156.79,232.23c7.24,5.61,14.37-1.25,16.57-7.19-3.5,1.75-5.88-.79-10,.27a8.33,8.33,0,0,0-6.59,6.92Z" transform="translate(-117.34 -135.11)"/><path class="cls-8" d="M170.11,229c-.51,1-5,6-10,3.46-.93-.85,4.88,1.7,10-3.46Z" transform="translate(-117.34 -135.11)"/><path class="cls-7" d="M150.48,228.45c-8.35-3.75-5.65-13.27-1.45-18,.11,3.91,3.47,4.82,4.46,8.94a8.35,8.35,0,0,1-3,9.07Z" transform="translate(-117.34 -135.11)"/><path class="cls-8" d="M147.09,215.16c-.67.94-3,7.22,1.64,10.44,1.19.42-3.8-3.5-1.64-10.44Z" transform="translate(-117.34 -135.11)"/><path class="cls-7" d="M160.68,223.39c6.31,5.91,13.63.07,16.21-5.32-3.44,1.34-5.46-1.26-9.41-.62a7.87,7.87,0,0,0-6.8,5.94Z" transform="translate(-117.34 -135.11)"/><path class="cls-8" d="M173.5,221.49c-.58.92-5.2,5.25-9.71,2.38-.8-.88,4.45,2,9.71-2.38Z" transform="translate(-117.34 -135.11)"/><path class="cls-7" d="M155.06,219.28c-7.52-4.25-4.16-13,.21-17.07-.24,3.69,2.85,4.84,3.41,8.8a7.85,7.85,0,0,1-3.62,8.27Z" transform="translate(-117.34 -135.11)"/><path class="cls-8" d="M153,206.48c-.71.83-3.45,6.53.64,10,1.08.5-3.27-3.63-.64-10Z" transform="translate(-117.34 -135.11)"/><path class="cls-7" d="M165.37,215c5.4,6.12,12.8,1.31,15.72-3.51-3.36.93-5-1.69-8.78-1.45a7.44,7.44,0,0,0-6.94,5Z" transform="translate(-117.34 -135.11)"/><path class="cls-8" d="M177.59,214.43c-.63.81-5.36,4.45-9.33,1.35-.68-.91,4,2.31,9.33-1.35Z" transform="translate(-117.34 -135.11)"/><path class="cls-7" d="M160.48,210.65c-6.68-4.68-2.72-12.57,1.76-16-.56,3.45,2.23,4.81,2.4,8.58a7.41,7.41,0,0,1-4.16,7.43Z" transform="translate(-117.34 -135.11)"/><path class="cls-8" d="M159.74,198.45c-.73.71-3.84,5.81-.31,9.42,1,.57-2.74-3.71.31-9.42Z" transform="translate(-117.34 -135.11)"/><path class="cls-7" d="M170.84,207.23c4.46,6.26,11.87,2.47,15.09-1.77-3.25.56-4.55-2.07-8.1-2.21a7,7,0,0,0-7,4Z" transform="translate(-117.34 -135.11)"/><path class="cls-8" d="M182.36,207.84c-.67.7-5.46,3.66-8.89.36-.54-.92,3.52,2.56,8.89-.36Z" transform="translate(-117.34 -135.11)"/><path class="cls-7" d="M166.68,202.64c-5.81-5-1.33-12.06,3.21-14.85-.87,3.18,1.62,4.72,1.41,8.28a7,7,0,0,1-4.62,6.57Z" transform="translate(-117.34 -135.11)"/><path class="cls-8" d="M167.18,191.12c-.77.59-4.17,5.08-1.22,8.81.86.62-2.2-3.75,1.22-8.81Z" transform="translate(-117.34 -135.11)"/><path class="cls-7" d="M177,200c3.53,6.34,10.87,3.56,14.32-.09-3.1.19-4.05-2.41-7.36-2.91a6.61,6.61,0,0,0-7,3Z" transform="translate(-117.34 -135.11)"/><path class="cls-8" d="M187.77,201.78c-.7.59-5.5,2.86-8.37-.58-.41-.92,3,2.76,8.37.58Z" transform="translate(-117.34 -135.11)"/><path class="cls-7" d="M173.61,195.28c-4.92-5.33,0-11.43,4.54-13.58-1.13,2.89,1,4.59.48,7.91a6.6,6.6,0,0,1-5,5.67Z" transform="translate(-117.34 -135.11)"/><path class="cls-8" d="M175.27,184.54c-.78.48-4.43,4.33-2.05,8.13.74.68-1.68-3.74,2.05-8.13Z" transform="translate(-117.34 -135.11)"/><path class="cls-7" d="M183.92,193.45c2.6,6.33,9.79,4.54,13.42,1.5-2.92-.17-3.52-2.71-6.57-3.54a6.24,6.24,0,0,0-6.85,2Z" transform="translate(-117.34 -135.11)"/><path class="cls-8" d="M193.78,196.3c-.73.47-5.47,2.07-7.78-1.47-.28-.91,2.54,2.91,7.78,1.47Z" transform="translate(-117.34 -135.11)"/><path class="cls-7" d="M181.23,188.64c-4-5.53,1.27-10.71,5.76-12.22-1.39,2.58.46,4.42-.43,7.46a6.22,6.22,0,0,1-5.33,4.76Z" transform="translate(-117.34 -135.11)"/><path class="cls-8" d="M184,178.76c-.78.36-4.63,3.57-2.82,7.39.62.72-1.15-3.69,2.82-7.39Z" transform="translate(-117.34 -135.11)"/><path class="cls-7" d="M191.43,187.59c1.69,6.25,8.64,5.41,12.41,3-2.72-.51-3-3-5.75-4.1a5.9,5.9,0,0,0-6.66,1.1Z" transform="translate(-117.34 -135.11)"/><path class="cls-8" d="M200.33,191.43c-.73.36-5.37,1.3-7.11-2.3-.16-.88,2,3,7.11,2.3Z" transform="translate(-117.34 -135.11)"/><path class="cls-7" d="M189.48,182.77c-3.12-5.67,2.46-9.9,6.84-10.78-1.6,2.25-.09,4.19-1.28,6.94a5.92,5.92,0,0,1-5.56,3.84Z" transform="translate(-117.34 -135.11)"/><path class="cls-8" d="M193.22,173.82c-.77.25-4.77,2.8-3.52,6.6.49.74-.65-3.6,3.52-6.6Z" transform="translate(-117.34 -135.11)"/><path class="cls-7" d="M199.51,182.48c.8,6.08,7.44,6.19,11.28,4.4-2.48-.83-2.42-3.16-4.87-4.58a5.6,5.6,0,0,0-6.41.18Z" transform="translate(-117.34 -135.11)"/><path class="cls-8" d="M207.4,187.22c-.74.24-5.22.54-6.4-3.07,0-.85,1.53,3.12,6.4,3.07Z" transform="translate(-117.34 -135.11)"/><path class="cls-7" d="M198.29,177.7c-2.2-5.73,3.58-9,7.81-9.26-1.79,1.91-.62,3.93-2.09,6.36a5.6,5.6,0,0,1-5.72,2.9Z" transform="translate(-117.34 -135.11)"/><path class="cls-8" d="M203,169.77c-.76.13-4.83,2-4.15,5.75.38.76-.14-3.46,4.15-5.75Z" transform="translate(-117.34 -135.11)"/><path class="cls-9" d="M225,201.55a3.46,3.46,0,0,1-1.05.53c-.42.11-1,0-1.37.26s-.35.47-.82.61c-.26.07-.37,0-.61.14s-.2.32-.35.42a6.21,6.21,0,0,1-1.21.26c-.5.16-.63.28-1.1.11a1,1,0,0,0-.6-.17c-.23,0-.48.07-.71.11a14.66,14.66,0,0,1-1.48.22,2.23,2.23,0,0,0-1.25.23c-.42.25-.65.56-1.15.59a24.57,24.57,0,0,0-2.51.38,10.85,10.85,0,0,1-1.31.27c-.59,0-.6.21-1,.48a2.76,2.76,0,0,1-2.24.23c-1-.16-1.81.36-2.73.55l-.6.1A54.84,54.84,0,0,1,225,201.55Z" transform="translate(-117.34 -135.11)"/><path class="cls-10" d="M190.66,218.23c.66-.87,1.94-.78,2.72-1.59a1.7,1.7,0,0,1,1.38-.76c.31,0,.56.17.82.17s.53-.22.86-.23c.28-.49.52-1.24,1-1.5a4.34,4.34,0,0,1,2-.5,1.15,1.15,0,0,1-.6,1.18,7.36,7.36,0,0,0-1.1,1.14c-.34.35-.94.46-1.14,1-.09.22,0,.54-.1.76s-.38.32-.38.59c.37-.07.43.16.27.39s-.54.2-.71.29a3.65,3.65,0,0,0-1.27,1c-.53.6-.7.19-1.35.06a16.28,16.28,0,0,0-1.69.1c0-.61,1-.47,1.3-.8s.16-.5.37-.73a1.39,1.39,0,0,1,.67-.26c.43-.12.31,0,.59-.33s.11-.34.45-.49.48-.08.69-.28.13-.44.4-.58c-.56-.15-1.16.48-1.54.8a3.08,3.08,0,0,1-1.52.61,3.66,3.66,0,0,0-.81,0c-.22.06-.45.19-.66.27a13.74,13.74,0,0,1-1.58.59C189.83,218.78,190.49,218.47,190.66,218.23Z" transform="translate(-117.34 -135.11)"/><path class="cls-11" d="M189.26,232.69c.34-.37.83-.63,1.17-1s.24-1-.34-1c-.27,0-.61.34-.7.56s0,.58-.26.85-.53.29-.68.55-.19.66,0,.73S189.13,232.82,189.26,232.69Z" transform="translate(-117.34 -135.11)"/><path class="cls-12" d="M195.55,240.85c.37-.1.94.26,1.24.43s1,.17.74.61-.87.09-1.15,0-.31-.39-.53-.52-1-.23-.33-.48Z" transform="translate(-117.34 -135.11)"/><path class="cls-13" d="M202.48,243.62c-.12-.7.76-.29,1-.21.48.16.68-.21,1.13-.27,0,.25-.31.36-.44.56s-.08.47-.54.54S202.61,244.3,202.48,243.62Z" transform="translate(-117.34 -135.11)"/><path class="cls-14" d="M223.12,275.45c-.18-.25-.83,0-1.1-.1s-.66-.36-.86-.11.14.58.38.66S223.46,275.94,223.12,275.45Z" transform="translate(-117.34 -135.11)"/><path class="cls-15" d="M215.83,299.23c-1.4-.15-1,1-1.7,1.58s-1.89-.26-2.64-.18c-.48,0-2.08.71-2,1.23.05.91,1.88.6,2,1.64-.53.36-1.22.3-1.28,1.06a5.31,5.31,0,0,0,.41,1.55c.3.68.68.52,1.4.58.57.05,1.3.58,1.82.35,1.17-.53.89-2.25,1.52-3.07.28-.37.5-1.19.83-1.46s1.07-.09,1.48-.74c-.21-.12-.33-.28-.65-.25C217,300.76,216.66,299.33,215.83,299.23Z" transform="translate(-117.34 -135.11)"/><path class="cls-16" d="M254.31,277.05l-.09-.08c-.61-.39-1.17.54-1.13.56s.14.14.32.18c.22.45-.24.82-.39,1.21a4.62,4.62,0,0,0-.18,1.54c-.77.28-.25,1.13.51,1a4,4,0,0,0,1.72-1.13,1.64,1.64,0,0,0,.24-1.81c-.19-.33-.54-.5-.75-.8S254.45,277.23,254.31,277.05Z" transform="translate(-117.34 -135.11)"/><path class="cls-17" d="M267,275.72c-.18.14-.26.3-.16.47s.68-.06.88,0c.47.24.51.25.14.87s-.81.88-.14,1.41.9.07,1.25,1a5.79,5.79,0,0,0,.3.92c.18.29.59.42.77.71.36.6-.17,1.22.05,1.83.47,1.26,2.05,1.15,3,.65s2.33-1.93,2.11-2.94c-.37.34-1.35,2.11-2,1.65s.19-1.06.37-1.41a2.2,2.2,0,0,0,.29-1.38.64.64,0,0,0-.47-.08c-.09.39-.12,1.21-.65,1.12.05-.49-.41-.56-.49-1-.05-.3.48-.43.13-.91-.45-.63-1.56-.13-2.13-.49-.8-.52-.7-1.73-1.27-2.4C268.54,275.25,267.42,275.38,267,275.72Z" transform="translate(-117.34 -135.11)"/><path class="cls-18" d="M279.31,267.7c-1.59,0-1.08,1.53-1.41,2.46-.17.48-.7.76-.95,1.16a6,6,0,0,0-.51,1.3c-.11.5.23,1,0,1.55s-.7.71-.83,1.31a6.94,6.94,0,0,1-.3,1.56,3,3,0,0,0-.5,1.46c1.26.3,1.59-1.71,2.11-2.44.7-1,1.49-1.75,1.56-3a8.15,8.15,0,0,1,0-1.56c.12-.54.35-1.12.51-1.62a17.42,17.42,0,0,0,.81-3.61,6.61,6.61,0,0,0,0-.89C278.93,265.39,279.48,267.17,279.31,267.7Z" transform="translate(-117.34 -135.11)"/><path class="cls-19" d="M277.76,247.35c-.07-.33-.33-.61-.43-.94a3,3,0,0,1,0-1.15,4.82,4.82,0,0,0-.26-2.13c-.15-.43-.34-.86-.45-1.3s-.13-1-.29-1.44a2.74,2.74,0,0,0-.89-1.21,3.19,3.19,0,0,1-.61-.76l-.3-.49a11.18,11.18,0,0,1-.61-1.06c-.14-.34-.33-.67-.48-1a4.3,4.3,0,0,1-.13-1c-.14-.77-1.11,0-1.61-.66a1.69,1.69,0,0,1-.17-.29,2.1,2.1,0,0,1-.14-1c0-.34.28-.85.64-.43.18.22,0,.75.29.95s.09-.75.09-.92c0-1.24.88.14,1.05.58a1.59,1.59,0,0,1,.12.41c.1.52,0,1,.1,1.59a2.39,2.39,0,0,0,.45.9c.16.28.24.82.53,1s.27-.15.33-.45.22-.69.65-.71a1.09,1.09,0,0,0-.41-1,4.37,4.37,0,0,1-.62-.71,1.55,1.55,0,0,1-.24-.86c0-.16,0-.32,0-.48a4.68,4.68,0,0,0-.59-2.1c-.13-.21-.89-1.38-.62-1.55s.48.27.65.37a1.2,1.2,0,0,0,.79.14,55,55,0,0,0-4.83-7.22,54.14,54.14,0,0,0-3.88-4.41,3.28,3.28,0,0,0-.31-.2c-.33-.19-.72-.34-1.06-.51a1.46,1.46,0,0,1-.38-.17c-.1-.07-.13-.25-.25-.32-.27-.17-.68-.13-1-.25a6.53,6.53,0,0,1-.87-.45,5.56,5.56,0,0,1-1.79-2,14.17,14.17,0,0,1-.91-1.83c-.73-.55-1.49-1.08-2.25-1.59a54.89,54.89,0,0,0-9.48-5.07.91.91,0,0,0-.1.42c0,.21.48.66.62.82s.72.42.65.74-.58.14-.82.12a6.7,6.7,0,0,1-1,0c-.33-.11-.5-.38-.91-.4-.94-.06-1,1.19-1.89,1.27a4.52,4.52,0,0,1-2.32-.22,1.73,1.73,0,0,0-1.29-.32c-.62.08-.94.15-1.42-.24a6.64,6.64,0,0,0-1.19-.75c-.34-.17-.76-.23-1-.55s-.18-.48-.48-.74-.38-.27-.81-.2-.65-.05-.89.2-.11.3-.21.44-.12.16-.38.25a2,2,0,0,1-1.12,0c-.31-.07-.75.05-1.05,0a3.19,3.19,0,0,1-.87-.7,1.07,1.07,0,0,0-1-.28,3.51,3.51,0,0,0-1.07.16c-.42.17-.27.51-.52.82s-.69.2-1.07.2a2.26,2.26,0,0,0-1.19.42c-.27.18-.52.6-.25.89,0,0,.49.21.49.21a.9.9,0,0,0,.5.08c.31,0,.67-.44,1-.29.54.23.05.61.05.6-.23.14-.68.26-.84.49s0,.47-.33.63a1.58,1.58,0,0,1-.78,0c-.36,0-.58.05-.7.36a3,3,0,0,1-.32.65,1,1,0,0,0-.22.66c.07.36.44.35.71.54.56.4-.55.57-.82.63s-.27.22-.33.52a.31.31,0,0,1-.49.25c-.61-.34.23-.72.22-1,0-.61-.8-.16-.95.17a1,1,0,0,0,0,.62c.05.28,0,.36-.19.57a3.25,3.25,0,0,1-1.2-.24,1.07,1.07,0,0,0-.79,0l-.38.16c-.3.12-.17.2-.34.41s-.44.13-.62.05-.33-.25-.63-.24-.5,0-.52.27.21.28.39.38.32.33,0,.39c-.59.1-.6-.68-1-.77s-1,.44-1.42.6-.65-.17-1.06-.19a1.16,1.16,0,0,0-1,.58c-.07.17,0,.44,0,.62s.12.31.35.44c.5.31.21,1.22-.37,1.31a1.11,1.11,0,0,1-.73-.28c-.21-.17-.15-.36-.14-.59a.88.88,0,0,1,.16-.58c.11-.14.35-.23.4-.41.15-.5-.72-.42-1-.58s-.43-.67-.87-.78c-.28-.07-1-.22-1.17.08a3,3,0,0,0-1.08.9c-.19.22-.25.49-.5.66s-.44.16-.46.38a1.18,1.18,0,0,0,.08.31,4.69,4.69,0,0,0,.92,0,1.54,1.54,0,0,1,.43,0c.15.05.22.17.36.21a2.13,2.13,0,0,0,1-.18,1,1,0,0,1,.74,0c0,.19,0,.5-.2.65s-.44.1-.65.08-.52,0-.79,0-.7-.28-1.06-.33a2.32,2.32,0,0,0-.82.14,6.77,6.77,0,0,0-.89.21c-.25.12-.39.37-.05.41s.67-.11.78.16-.13.43-.2.59-.2.4-.45.44c-.79.11,0-.63-.5-.78a1.28,1.28,0,0,0-.93.17c-.23.15-.27.31-.4.53s-.59.4-.76.69-.09.39-.26.54-.41.07-.64.08-.35.16-.57.25-.36-.06-.54-.09-.36,0-.52-.09-.11-.32-.23-.45-.51-.11-.72-.12a.81.81,0,0,0-.53.09,2.08,2.08,0,0,1-.58.36,1.54,1.54,0,0,1-1-.09.33.33,0,0,1-.14-.48c0-.08.12-.14.15-.23a2.66,2.66,0,0,0,0-.28c.05-.29.22-.44.49-.36a3.8,3.8,0,0,1,.51.13,1.47,1.47,0,0,0,.49.19,4.35,4.35,0,0,0,.52-.1c.19,0,.36.05.55,0a6.21,6.21,0,0,0,.7-.31,1.22,1.22,0,0,1,.57-.2.89.89,0,0,0,.61-.25c.18-.17.25-.36.48-.49a2.4,2.4,0,0,1,.82-.31,2.85,2.85,0,0,0,.65-.05.72.72,0,0,0,.45-.48c.1-.27.48-.39.68-.6s.07-.5.22-.77a4.61,4.61,0,0,0,.38-.65c.14-.35.37-.45.68-.61a3.22,3.22,0,0,1,.84-.34,1.53,1.53,0,0,1,.76.19c.53.17.89-.29,1.4-.31a1.69,1.69,0,0,1,1.16.54c.28.33.61.59,1.07.32s.68-.59,1.14-.55a2.4,2.4,0,0,1,.52.16,1.2,1.2,0,0,0,.65,0,5.81,5.81,0,0,0,.94-.2c.23-.1.14-.2.19-.42s.16-.43.41-.34c.1,0,.17.21.28.24a.94.94,0,0,0,.29,0c.45,0,.78.25,1.23.09a2.49,2.49,0,0,0,.59-.23l.08-.05a.89.89,0,0,1,.44-.3,3.15,3.15,0,0,1,1,.11c.2,0,.59.24.74,0-.13-.24-.78-.12-.7-.45s.28-.12.19-.35-.26-.23-.36-.3c-.32-.24-.59-.73-1-.74a.8.8,0,0,1-.54-.12c-.16-.14-.21-.29-.43-.38s-.57-.13-.63-.3.07-.34,0-.53-.29-.24-.47-.34-.19-.23,0-.4.05-.15.22-.19a.7.7,0,0,1,.38,0c.21.09.18.35.32.51a2.07,2.07,0,0,0,.25.19c.13.11.11.25.2.36a.23.23,0,0,0,.31,0c.14-.08.1-.08.1-.22a1.67,1.67,0,0,0-.06-.39c-.06-.13-.21-.14-.18-.31.05-.34.38-.28.55-.1s.35.24.47.41.14.36.42.47a1.08,1.08,0,0,0,.77,0c.3-.15.19-.37-.06-.47a3.13,3.13,0,0,1-1.13-.55,2.24,2.24,0,0,1-.21-.6c-.09-.26-.22-.29-.47-.45a2.67,2.67,0,0,0-1.2-.4c-.22,0-.47,0-.66-.09a2.25,2.25,0,0,0-.49-.37,3.65,3.65,0,0,1-.35-.14c-.1-.06-.2-.19-.3-.22s-.41.12-.6.16-.65,0-.94.16-.31.34-.55.31-.17-.12-.29-.17-.22,0-.31,0-.38-.21-.62-.18a1.52,1.52,0,0,0-.57.34,1.88,1.88,0,0,1-.45.22c-.12.05-.48.1-.55.21s.06.26.11.35a1.16,1.16,0,0,0,.2.32c.14.11.35.08.51.1a2.87,2.87,0,0,1,.51.21.94.94,0,0,0,.7,0,3.58,3.58,0,0,1,.93-.09c.11,0,.63-.08.57.07s-.36.14-.44.18a2.94,2.94,0,0,0-.47.34c-.22.14-.43,0-.67,0a2.06,2.06,0,0,0-.43,0c-.08,0-.11.1-.17.14a2.64,2.64,0,0,1-.61.23.59.59,0,0,1-.71-.19.48.48,0,0,0-.52-.12.66.66,0,0,0-.53.46c0,.21.2.38,0,.57s-.43.14-.59.21-.39.25-.62,0a3.87,3.87,0,0,1-.37-.53c-.14-.19-.38-.29-.51-.49-.28-.48.19-1-.31-1.4-.2-.17-.33-.4-.55-.5a2.07,2.07,0,0,0-.88-.21,3.13,3.13,0,0,1-.75.07,1.18,1.18,0,0,1-.68-.28.59.59,0,0,0-.54-.16c-.3,0-.61,0-.91,0s-.75.35-1.16.45a3,3,0,0,0-.53.22,7.58,7.58,0,0,1-.77.24c-.21.06-.28.21-.39.38s-.44.38-.56.63a4.07,4.07,0,0,0-.14.58c0,.13-.2.35-.18.45a2.25,2.25,0,0,0-.12.21,5.09,5.09,0,0,1-.34.47,1.29,1.29,0,0,0-.18.82,1,1,0,0,1-.24.63c-.1.14-.15.28.06.36s.38-.08.57-.14a1.69,1.69,0,0,0,.49-.2c.26-.15.32-.07.58-.06s.37-.12.59,0c-.18.39-.52.52-.86.76-.19.13-.17.29-.29.45a.89.89,0,0,1-.13.14c-.08.08-.14.14,0,.3s.29.17.23.34-.3.27-.38.36c-.26.33-.72.39-1,.68a1.43,1.43,0,0,1-.41.31,4.07,4.07,0,0,0-.55.28c-.12.07-.38.15-.44.29s.18.2.34.18a4.15,4.15,0,0,0,1.06-.12,2.08,2.08,0,0,1,.58-.19c.18,0,.31.06.49.07.36,0,.59.22,1,.12a1.45,1.45,0,0,0,.49-.22c.11-.08.19-.22.34-.15-.05.4.43.12.56.11.36,0,0,.43-.06.59a5.35,5.35,0,0,1-.29.47c-.13.15-.29.19-.32.41s.05.29-.11.47-.33.19-.45.33-.13.21-.32.22-.29-.08-.48,0-.25.29-.39.27,0-.46.12-.53.5-.18.71-.35a3.44,3.44,0,0,0,.7-1.09,2,2,0,0,0-1.13.26,3.62,3.62,0,0,0-1.85,1.44c-.24.36-.38.78-.76,1a3.17,3.17,0,0,1-1.27.09,4.37,4.37,0,0,0-1.31.07c-.49.16-.7.68-1.15.85s-.81,0-1.24.3a2.22,2.22,0,0,1-.51.31c-.24.07-1.3,1-1.26.18-.31,0-.42.25-.38.52-.39.08-.53-.33-.87-.37a.85.85,0,0,0-.8.55c-.14.37.11.7.05,1.05a5.85,5.85,0,0,1-.44.86,2.92,2.92,0,0,1-.45.92c-.22.28-.38.59-.61.87a4,4,0,0,1-.82.65c-.59.17-.51-.32-.71-.63s-.29-.22-.43-.38a1.59,1.59,0,0,1-.27-.39c-.16-.3.06-.38-.34-.4a.78.78,0,0,0-.52.25c-.28.26-.36.74-.57,1.06a11.52,11.52,0,0,1-.92,1c-.24.29-.43.59-.69.88s-.9.6-1.06.92.08.8-.21,1.2-.72.67-.12,1c-.2.35-.58.63-.36,1.07.51-.09.56.23.77.6,0,0,.07-.05.09-.05.26.09.9-.23,1.16-.31a2.64,2.64,0,0,0,1.12-.46c.29-.3.31-.76.55-1.08a3.94,3.94,0,0,1,1-.78c.76-.52,1.55-.37,2-1.2.18-.35.39-.88.94-.64.28.11.42.56.67.81a9.25,9.25,0,0,0,1.46-.58c.56-.25,1-.24.88.53-.07.44-.44.62-.55,1a5.42,5.42,0,0,0-.11,1.26c0,.85.61,1.43.89,2.17.37,1-.14,1.48-.67,2.2-.27.35-.4.57-1,.49s-.6-.54-1-.6c-.57-.1-.66.41-.45.78.12.2.4.33.49.54s0,.43.13.64c.16.41.53.58.83.13s-.06-.74.53-.93c.2-.07.52.08.7,0s.17-.35.3-.47c.3-.31.67-.28.81-.72.07-.26-.16-1.19.43-1.1.29,0,.18.7.7.76a4.44,4.44,0,0,0,.18-.76c0-1-.61-1.34-.95-2.18-.18-.47,0-.83,0-1.31a7.09,7.09,0,0,1,.1-1.31c.09-.5.06-.78.61-.88s.76.17.71.72a3.36,3.36,0,0,0-.06,1.3c.11.42.34.74.44,1.15s.39.66.49,1c.14.53-.2.72-.42,1.1a7,7,0,0,0-.55,1.09c-.13.4.07.89,0,1.3a10.26,10.26,0,0,1-.22,1.21c-.05.35-.34.85-.27,1.19s.27.28.38.5.08.41.21.6.7.61,1,.34c.1-.11.08-.45.17-.6s.29-.18.38-.34c.28-.48,0-.63.53-.93s.68-.32.34-.83-.54-.35-.45-1,.31-.44.88-.59a5.33,5.33,0,0,1,1.09-.34c.54,0,.61.15,1,.4s.66.13,1.07.05c.25-.06,1-.19,1.06.21.15.64-.63.31-.86.26-.53-.1-2.18-.55-2.12.54,0,.44.57.47.14.93s-.72,0-.69.72c0,.5.42.55.49.93s-.46.83-.16,1.19a.55.55,0,0,0,.38.15c.29,0,.64-.08.87.06.38.24.19.65.5,1,.94,1,.95-.89,1.68-.19.27.26.27.73.67.95a2.26,2.26,0,0,0,1.3.13c.37-.09.61-.42,1-.34.18,0,.25.27.49.28s.5-.24.54-.22c.49.17-.22.75-.38.93-.38.42-.3.6-.33,1.2,0,.9-.72,1.46-1.24,2.19s-.71,1.35-1.55,1.68c-.61.23-1.83.39-2-.58-.51-.1-1-.56-1.53-.46s-.79.61-1.41.23a7.21,7.21,0,0,1-1.2-1c-.52-.57-.75-.26-1.46-.39,0-.56.06-.78-.5-1-.18-.08-.4-.06-.56-.2s-.08-.22-.21-.45a3.11,3.11,0,0,0-.56-.86,1.41,1.41,0,0,0-2.12.42c-.15.51,0,.79-.49,1.19s-.62.41-1,.08-.47-1.42-1-1.71-.71,0-.67-.76a2.5,2.5,0,0,0-.09-1.27c-.19-.4-.51-.42-.81-.6a1.25,1.25,0,0,1-.66-1c-.28-1.16.38-1,.9-1.86.2-.31.76-1.88.52-2a4,4,0,0,0,0-.59c-.16-.75-.47-.2-.87-.27s-.22-.24-.43-.34-.34-.07-.56-.15c-.38-.14-.53-.44-.8-.67s-.6-.31-1.11-.37a1.08,1.08,0,0,1-.6-.18c-.12-.11-.05-.47-.23-.52-.37-.1-.17.26-.32.37a2,2,0,0,1-.54.22c-.32.1-.1.23-.48.1a1.08,1.08,0,0,1-.38-.33c-.17-.34.12-.77-.13-1.12-.62-.06-1.25.63-1.64,1.06a13.58,13.58,0,0,0-1.53,1.7,7.85,7.85,0,0,0-.38,1.05,4.12,4.12,0,0,1-.69.82,3.81,3.81,0,0,1-.66.67c-.4.22-.63.1-.92.53-.84,1.22-1.49,2.57-2.34,3.79a54,54,0,0,0-1.56,7.57,55.07,55.07,0,0,0-.48,7.31,54.14,54.14,0,0,0,.4,6.66l.2.26a3.23,3.23,0,0,1,.52.83c.16.41.11.49.61.49,0-.12,0-.14,0-.24.33,0,.46.2.72.33s.54,0,.75.28a1,1,0,0,1,.17.39,1.47,1.47,0,0,0,.17.46c.24.34.43.14.76.34s.17.47.29.81.27.35.22.74c-.11.75.11.93.77,1.23s1,.53.84,1.35c-.07.49-.08.51.26.85a.85.85,0,0,1,.33.91c-.06.33,0,.79-.05,1.1-.17.55-.33.09-.53-.16s-.42-.67-.69-.63c-.45.08-.23.5-.12.71.21.41.28.48.05.9a1.13,1.13,0,0,0-.17,1.06c.1.32.17.68.44.83s.73.06,1,.21.3.49.5.72a2.67,2.67,0,0,1,.55.83,7.68,7.68,0,0,0,.38,1,7.57,7.57,0,0,0,.61.79l.09.11a2.69,2.69,0,0,1,.45,1.11c.12.65.42,1.28.49,1.92a6.71,6.71,0,0,0,.87,2.42c.16.3.23.59.36.9s.37.58.37.9a4.22,4.22,0,0,0-.08.94c.07.43.22.51.49.82.53.59.67,1.46,1.15,2.09s.88,1.26,1.3,1.89a5.79,5.79,0,0,0,.71.69,4,4,0,0,1,.53.86,6,6,0,0,1,.67,1.51,55.64,55.64,0,0,0,8.09,6.58,54.51,54.51,0,0,0,11.49,5.85c-.27-.19-.54-.32-.85-.52-.47-.3-.87-.72-1.35-1s-.5-.25-.73-.63a1.27,1.27,0,0,0-.62-.65c-.35-.16-1.44-.66-1.48-1.11a1,1,0,0,1,.41-.76c.3-.2.72-.08,1-.26.7-.48-.74-1-1-1.27s-.28-.35-.7-.37c-.22,0-.44,0-.54-.07s-.1-.15-.08-.34a2.64,2.64,0,0,1,1.55-.54.72.72,0,0,1,1-.4c.27.15.21.26.54.29a2.87,2.87,0,0,0,.65-.12c.34-.05.63.11.94,0s.41-.35.83-.08c.17.12.64.7.72.21,0-.2-.39-.64-.51-.79s-.56-.45-.72-.72,0-.53,0-.87-.1-.45-.38-.76.06-.61,0-1.08a3.45,3.45,0,0,0-1.1-1.48c-.28-.19-.61-.29-.75-.62l0-.11c-.1-.35.18-.57.16-.9s-.31-.42-.53-.65-.2-.52-.13-.87c0-.2.09-.71.37-.74s.23.53.38.74c.31-.17,0-1,.2-1.18.43-.36-.24-1,.32-1.29s1,.25,1.48,0,.52-1.13,1-1.5a12.12,12.12,0,0,1,1.63-1.08,11.54,11.54,0,0,1,1.57-.79,6.13,6.13,0,0,0,1.7-.75,12.12,12.12,0,0,1,1.56-1.24,3,3,0,0,0,.83-.47,8.1,8.1,0,0,0,.55-.84c.43-.54.75-1.12,1.17-1.66.29-.36.86-1.48,1.34-1.53a10.62,10.62,0,0,1,.17-1.38,1.4,1.4,0,0,0,.44-.22c.07-.32-.2-.6-.2-.94s.28-.49.28-.74-.41-.47-.73-.36-.43.39-.7.53c-.58.32-1.27.08-1.92.17-.36,0-.64.19-1,.2s-.66,0-1,.07c-.71.08-1.31-.59-2-.4-.22.06-.3.25-.53.29a1.63,1.63,0,0,1-.49-.09,1.21,1.21,0,0,1-.73-.62c-.37-.54-.1-1.18-.5-1.75-.23-.32-.59-1.31-.9-1.35-.12-.5-.76-.74-1-1.18a4.84,4.84,0,0,1-.12-.91,2.62,2.62,0,0,0-.37-.75,1.35,1.35,0,0,0-.71-.48c-.15,0-.16.11-.4-.05a.92.92,0,0,1-.24-.28c-.31-.59.05-1.41-.13-2a3.89,3.89,0,0,0-1.12-2c-.32-.22-.53-.13-.72-.5a3.81,3.81,0,0,1-.21-.9,6.34,6.34,0,0,1,.21-2.25c.11-.83-.32-1.19-.75-1.75a3,3,0,0,1-.45-.75c-.1-.37.08-.56.24-.83.4-.67,0-1.14-.27-1.79a6.64,6.64,0,0,1-.58-2.21,4.45,4.45,0,0,0-.38-1.88,4.55,4.55,0,0,1-.48-1.81,6.69,6.69,0,0,1,0-2c.19,0,.17.07.24.2.28.54,0,1.44.09,2a8.56,8.56,0,0,0,.77,1.73c.18.45.31.34.58,0a2,2,0,0,0,.32-.78c.1-.38.47-1.51.93-1.55a6,6,0,0,1-.61,1.71c-.11.27-.43.63-.31.94s.43.47.56.7a5.11,5.11,0,0,1,.5,1.68,11.05,11.05,0,0,1,.37,2.29c.06,0,.13-.21.16-.24.16.4-.09.78.05,1.13s.46.31.67.55a4.48,4.48,0,0,1,.51,1.18,2,2,0,0,1,.37,1.15c-.07.37-.34.63-.38,1a6.37,6.37,0,0,0,0,1.07c.14.87,1,.83,1.35,1.47a5.36,5.36,0,0,1,.38,1c.12.35,0,.76.09,1.11.18.63.86.92,1.18,1.44a5.19,5.19,0,0,1,.32,2.12,3,3,0,0,0,.12.74c.07.16.2.23.25.41a2.62,2.62,0,0,1-.15,1.11,2.29,2.29,0,0,0,.71,1.92c.37.36.62.08,1.08.08s.61.17.94,0,.14-.51.36-.83.63-.2.92-.17a1.28,1.28,0,0,0,.94-.1c.35-.22.46-.47.88-.29s.47.44.8.21.24-.58.6-.75.68,0,1-.08.58-.56.82-.42c.28-.06.54-.23.82-.28s.62,0,.9,0c.69-.16.51-.93.94-1.19a6.43,6.43,0,0,1,.74-.24,2.68,2.68,0,0,1,.94-.13,4.23,4.23,0,0,0,.94,0c.39-.07.4-.25.58-.53s.45-.35.89-.33.81.08,1-.2-.15-.7.23-1,.58.06,1,0c.7,0,.29-1.26.41-1.72.06-.24.26-.77.54-.71s.29.46.68.41a4,4,0,0,1,1-1.87c.64-.68.68-1-.08-1.55-.34-.25-.55-.33-.74-.71s-.2-.62-.66-.69a2.92,2.92,0,0,1-1.84-.62c-.53-.55-.28-1.3-.25-2,0-.27,0-.85-.37-.78s-.47.64-.62.82a6.07,6.07,0,0,1-1.59,1.22c-.44.28-.3.29.13.45s.46.31,0,.42a3.66,3.66,0,0,1-1,0c-.33-.05-.5-.27-.81-.33-1-.22-.79.6-1.2,1.1s-.53-.07-.4-.4.23-.14.25-.37-.13-.23-.25-.33-.31,0-.33-.25.21-.2.3-.32a1.25,1.25,0,0,0,.11-.95c-.07-.68-.09-1.35-1-1.18a11,11,0,0,0-.13,1.42c-.45-.29-.4-1.11-.4-1.59,0-.74-.43-.93-.73-1.56a6.75,6.75,0,0,1-.7-1.64c-.05-.31-.14-.57-.22-.89s0-.43.34-.65.47-.28.89-.08.54.12.82.24c.69.26.55,1.12.75,1.66.06.16.16.27.2.42s0,.41.08.58.45.35.73.45a1.56,1.56,0,0,1,.5.17c.14.11.13.23.25.35a5.25,5.25,0,0,0,.69.53c.34.19.65-.06,1,.06s.39.49.79.57c.8.14,1-.8,1.72-.82,1,0,1,.76,1,1.48s1,.69,1.59.86,1.44.09,2.13.23,1.16.66,1.88.55a6.22,6.22,0,0,1,2-.34,2.16,2.16,0,0,0,.94.07,6.51,6.51,0,0,1,1.39-.23c.22-.14.79.11,1,.21a1,1,0,0,1,.57.74c.11.32.08.66.38.84s.66,0,.94.25.25.62.48.83a1.18,1.18,0,0,0,.87.16,1.36,1.36,0,0,0,.85-.42,4.93,4.93,0,0,1,.87-.4c.23-.13.55-.53.25-.78s-.69.15-.9.29c-.4.27-1.7.67-2,.07-.25-.44.36-.27.56-.24a1.58,1.58,0,0,0,1-.05c.43-.2,1.46-1.39,1.76-.73.11.27,0,.66.13.94s.3.52-.09.74-.67.05-1,.2a.66.66,0,0,0-.45.54c-.16.51-1.58.54-1,1.1.18.18.52.21.75.37s.32.51.55.79c.37.43,1.41.12,1.73-.29.17-.22.25-1,.58-1s.15.56.24.78.5.43.61.71-.17.87-.25,1.2a3.17,3.17,0,0,0,0,2.27c.15.28.47.46.46.82s-.26.58-.29.91c-.07.86.77,1.59,1,2.36a5.58,5.58,0,0,0,.29,1c.15.27.48.55.66.81a9.36,9.36,0,0,1,1.06,2.18,3.66,3.66,0,0,0,.61.9c.3.4.19.69.29,1.14.13.69,1,1.32,1.55.58.21-.28.1-.69.34-1s.69-.28.93-.55.14-.67.38-.92.55-.21.73-.58c.32-.66-.15-1.38.25-2a1.55,1.55,0,0,0,.36-.87c0-.41-.22-.62-.33-1a3.32,3.32,0,0,1,.38-2.49,2,2,0,0,1,1.05-.84,1.84,1.84,0,0,0,.74-.52,2.75,2.75,0,0,1,.28-1.07c.25-.42.8-.53,1.12-.89s.35-.87.65-1.28.37-.81.65-1.15a1.45,1.45,0,0,1,.66-.45c.4-.16.46-.26.71-.64s.33-.39.28-.83-.1-.56.19-.83a1.38,1.38,0,0,1,.78-.35,2.08,2.08,0,0,0,1-.3c.31-.24.77-1.9,1.19-1.75s.68,1.47.9,1.8c.46.68,1.09.93,1.44,1.68.11.24.49.41.54.61s-.47.41-.65.62-.28.8.07.94.63-.22.94-.16c0,.68-.4,1.34-.15,2,1.78.23,1.26-1.55,2.24-2.37.38.35.44,1.23.52,1.71s.63,1.06.55,1.65a12.12,12.12,0,0,0-.25,2.5,11,11,0,0,1,0,1.15c0,.38-.24.8-.13,1.19s.84,1,1.19,1.36c.58.56.23,1.18.17,1.87a1.63,1.63,0,0,0,.24.94c.14.33.08.75.46.9s.57,0,.89.22.52.42.82.11c.69-.71-.64-1.16-.76-1.72-.09-.38.27-.65.44-.95a1.34,1.34,0,0,0,.11-1.14c-.22-.66-.9-.79-1.27-1.35a6.54,6.54,0,0,0-.48-.82,1.56,1.56,0,0,1-.36-.82,4.74,4.74,0,0,1,.16-2.33c.13-.58-.13-1.5.17-2,.38-.05.2.56.28.81a.78.78,0,0,1,.4-.08c.05.33.32.2.54.2s.27,0,.48.17.22.31.46.46.27.11.38.4-.09,2.29.47,1.87c.19-.13.35-.88.46-1.1a3.76,3.76,0,0,0,.49-1.06c.06-.34,0-.61.2-.91s.41-.47.58-.72a2,2,0,0,0,.41-1.1c0-.51,0-1,0-1.52a4.58,4.58,0,0,0-.07-1.81,9.37,9.37,0,0,0-1-1.84,5.34,5.34,0,0,1-1-1.81,2.6,2.6,0,0,1,.16-1.8,5.53,5.53,0,0,0,.46-.82c.09-.34,0-.72.1-1.06.36-1,.82.41.79.86,0,.69-.57,1.22-.38,2,.25,1,.94.18,1-.41a3.1,3.1,0,0,0-.15-1.89,1.66,1.66,0,0,1-.1-1.81,8.09,8.09,0,0,0,.61-1c.13-.3.25-.6.39-.89a9.79,9.79,0,0,0,.48-3.15A5,5,0,0,0,277.76,247.35Zm-76.35,36.78c-.49-.15-1-1.25-1.23-1.68a2.39,2.39,0,0,1-.13-2c.33-.44.79,0,.76.31s-.25.64-.22,1.06C200.65,282.73,201.5,283.27,201.41,284.13Zm-5.22,1.33c.05-.11.23-.16.26-.28s-.09-.32,0-.5c.25-1.5,2-.33,1.86.82,0,.33-.11,1-.44,1.19a3,3,0,0,1-1,.07c-.39,0-.54,0-.69-.45A1,1,0,0,1,196.19,285.46Zm3.32,9.82c0-.33-.35-1.33-.33-1.37a3.14,3.14,0,0,1,1.16.2c.34.33.1.79.22,1.21.23.85,1.14,1.67,1.07,2.57-.67-.23-1.18-1.17-1.69-1.63A1.06,1.06,0,0,1,199.51,295.28Zm-3.44-47.14a1.24,1.24,0,0,1,.6-.12.88.88,0,0,1,.24,0c.08,0,.41.08.43.16s-.32.15-.4.19l-.1.06a.31.31,0,0,1-.1,0,1.47,1.47,0,0,0-.6.41c-.2.22.07.44-.35.44a.34.34,0,0,1-.38-.33A2.86,2.86,0,0,1,196.07,248.14Zm-11-10a.86.86,0,0,1,.32,0c.47.11.58.66.19.81S185,238.42,185.09,238.18Zm-.42-1.36s.11-.15.17-.16a.44.44,0,0,1,.15.05c0,.28,0,1.19-.4,1.22C183.89,238,184.57,237,184.67,236.82Zm-.39,23c.16,0,.61-.15.75-.09.05.53.3.48.54.87.08.12.25.53.08.64s-.3-.17-.43-.23a3.78,3.78,0,0,1-.94-.48C184.08,260.33,183.58,259.84,184.28,259.78Zm-3.38.83c.33-.06,1.15.76,1.29,1.09a4.12,4.12,0,0,1-.06,1.87.47.47,0,0,1,0,.14c-.14.43-.3.46-.65.22l-.06,0c-.35-.25-.38-.4-.31-.87a3.61,3.61,0,0,0,.15-1c-.07-.35-.39-.78-.5-1.14C180.71,260.83,180.88,260.66,180.9,260.61ZM195.48,291c-.42-.29-.41-.34-.66.07s-.35,1-.66.33.18-1.62.11-2.35-.76-1-1.19-1.54c.12-.25.39-.44.42-.7s-.21-.56-.21-.88c.6,0,.76.9.88,1.3a11.57,11.57,0,0,0,.79,1.67c.52,1,2.54,1.93,2.3,3.25-.31,0-.73-.36-1-.52S195.77,291.15,195.48,291Zm16.81-53.21a3.33,3.33,0,0,1-1.37,0c-.42-.21-.2-.74-.6-1a1.06,1.06,0,0,0-1.16,0c-.64.34-.57.43-1-.15a4,4,0,0,0-.87-.83,3,3,0,0,0-2.56-.25c0,.49-.33.49-.72.48a2.05,2.05,0,0,1-1.15-.25c-.2-.19-.1-.4-.25-.58s-.35-.1-.51-.24c-.63-.56-.19-1.47.45-1.81s.5-.18.8-.72a2.14,2.14,0,0,1,1-.83c.7-.39,1.16-1.85,2.24-1.52.32.1.48.51.77.66.09.05,1.08,0,.86.33s-.89-.07-1.13.22.17.59.23.88c.1.55-.28.47.25.81.23.14.69.33,1,.15s.11-.34.28-.44.25,0,.5,0,.91.07.59-.53c-.5,0-1.37.07-1-.77.21-.52,1-.29,1.44-.37s1.09-.21,1.68-.3a16.46,16.46,0,0,1,1.72,0,4.29,4.29,0,0,1-1.18.38,11.36,11.36,0,0,0-1.19.18,3.79,3.79,0,0,1-.06,1c-.36-.08-.67-.14-.82.23s.11.43.32.67.29.37.46.57a1.86,1.86,0,0,1,.42.67c.18.4.22.49.65.65a1.18,1.18,0,0,1,.76.56,1.11,1.11,0,0,1,0,1.52A1.71,1.71,0,0,1,212.29,237.74Zm1.42,3.81a2.37,2.37,0,0,1-1-.15c-.31-.42,1-.87,1.38-.83C214,240.8,214,241.43,213.71,241.55Zm1.92,1.63c0-.5-.71-1.19.15-1.42C215.92,241.85,216.31,243.55,215.63,243.18Zm8.42,19.87c0-.15.15-.51.35-.32a1.45,1.45,0,0,1,.24.35,1.69,1.69,0,0,1,.17.36s0,.07,0,.1.15.07.25.06a.25.25,0,0,1,.22.07,1.13,1.13,0,0,1,.22.53c.36,0,.5-.53.85-.58,0,.23-.4.75-.58.92-.36.33-.48.24-.89.06l-.1-.05a2.13,2.13,0,0,1-.45-.45,1.18,1.18,0,0,1-.3-.5A2,2,0,0,1,224.05,263.05Zm-2.28,2.78c.37-.4.64-.55.78-1.14s.22-1.23.88-1.19c.49,0,.69.76.55,1.3a.68.68,0,0,1-.57.57c-.31,0-.51.26-.75.47a5,5,0,0,1-.82.51c-.29.17-.5.69-.86.63C221,266.65,221.53,266.1,221.77,265.83Zm-4.72-48.78c-.24.09-.75-.34-.78-.56s.43-.74.49-1c.23,0,.69.43.7.64A2.76,2.76,0,0,1,217.05,217.05Zm7.74,13.74c.05,0,.32-.06.37,0,0,.34,0,1.46-.41,1.29S224.68,231,224.79,230.79ZM226,248.32c-.07.28.17.91,0,1.15-.33.48-.45-.32-.51-.55a1.45,1.45,0,0,1-.08-.85c.09-.29.35-.41.36-.73a1.11,1.11,0,0,0-.07-.31c-.11-.35-.28-.8.24-.9.2,0,.83.55.94.7C227.43,247.55,226.22,247.59,226,248.32Zm.17-6.57a2,2,0,0,0-1.75.07c-.73.67.3,2.1-.43,2.66s-2-.14-2.57-.2-.71,0-1.15-.38c-.17-.16-.13-.21-.38-.33s-.4,0-.6-.18c-.38-.28-.45-1.34-.36-2h0a2,2,0,0,1,.1-.45.8.8,0,0,0,.92-.23c.28-.42,0-.53.49-.76.24-.1.91,0,.6-.45-.2-.29-.76-.09-1-.33s-.17-.64-.28-1a3.11,3.11,0,0,0-.55-1c-.27-.35-.53-.55-.44-1.07s.29-.3.56-.66c-.2-.27-.55-.39-.73-.62a.49.49,0,0,1-.1-.47,3.46,3.46,0,0,1,1.09-1.26c1.32.22,0-1.21-.26-1.65a9.09,9.09,0,0,1-.38-.93,1.33,1.33,0,0,0-.27-.38c-.36-.34-.71-.27-1.1-.49-.11-.78.84-1.95,1.37-2.5a4,4,0,0,1,1.52-.86c.4-.15,1-.58,1.45-.51a7.42,7.42,0,0,1-2.09,1.37,2.92,2.92,0,0,0-1.56,1.69c-.21.71.75.87,1.22,1.37a.89.89,0,0,1,.16.22c.37.72.38,1.36,1,1.92s1.31.13,2.09-.06a1.68,1.68,0,0,1,1.21,0c.57.3.17.69.43,1.11s.71.08,1.09.27c.58.29.29.66-.11.82-.24.1-.37,0-.59.16s-.1.41-.24.55c-.29.3-.69.17-1.07,0,0-.89,1.24,0,1-1a3.07,3.07,0,0,0-1.84-.16c-.08.31,0,.68-.28.87s-.74.06-1,.15c0,.52.49.46.76.77s.17.79.54,1.08c.17.13.42,0,.56.23s-.05.49-.06.66c0,.35-.1,1.06.43.92,0-.34.12-.83.55-.82s.29.63.45,1c.28-.14,1,.11.75.56-.15.26-.83,0-1.09,0s-.79,0-.93.38c-.24.7.45.42.65.67s-.47.59.33.81a4.83,4.83,0,0,0,1.26,0c.53,0,1.84.66,2,1.25C227.05,242.59,226.64,242,226.21,241.75Zm1.92-2.78c-.57-.25-.32-1-.21-1.46h.21C228.82,237.65,228.55,239.15,228.13,239Zm3.48-3.69c-.24.23-.4.7-.63.88s-.55,0-.95,0-.42.31-.86-.06a.85.85,0,0,1-.29-.87c.06-.15.24-.24.29-.37s0-.3,0-.45c.27-.9.88-.51,1.58-.89,0-.4-.49-.27-.26-.74a.61.61,0,0,1,.76-.23c.27-.21.79-.35.83,0s-.3.42-.44.66c-.33.55,0,1,.58,1.2C232.2,234.93,231.92,235,231.61,235.28Zm1-24.86c-.46.43-.75.29-1.31.4s-.84.44-1.26.53a1.49,1.49,0,0,1-.76,0c-.4-.25,0-.13,0-.43s0-.28-.13-.52-.42-.3-.49-.44c-.28-.53.24-.63.65-.82.23-.11.26-.28.55-.26a3.8,3.8,0,0,1,.6.27c.4.52-.2.61-.59.72a.75.75,0,0,1,0,.15,5.25,5.25,0,0,0,1.19,0c.53-.12.6-.38.93-.6,0-.83.88-.42,1.05-.07A1,1,0,0,1,232.6,210.42Zm13.65,22.5a5.27,5.27,0,0,1-1.48,0c-.29,0-1.19-.13-1.38.14-.29.44.46.57.39,1a2.61,2.61,0,0,0-.74,0,6.92,6.92,0,0,0,.09,1.18,3,3,0,0,1-.81-1.3,1.42,1.42,0,0,1,.71-1.48,5.27,5.27,0,0,1,1.68,0,3.23,3.23,0,0,0,.83.05c.27-.06.59-.38.76-.33C246.93,232.26,246.5,232.84,246.25,232.92Zm11.9,5.58c-.21.2-.55,1.24-.86,1.13s-.2-1.16-.23-1.41-.11-.95.21-1.06a.23.23,0,0,1,.26.07c.17.21.19.73.67.66s.59-.55,1-.48C259.28,238,258.48,238.19,258.15,238.5Zm2.12-14.76a3.14,3.14,0,0,1-.81,1.09c-.39.18-1-.08-1.36-.17s-1.16-.4-.39-.59c.45-.11.76.41,1.11-.1a3.69,3.69,0,0,0,.21-1.32,1.34,1.34,0,0,0-.32-.92c-.14-.18-.72-.43-.76-.64-.19-.89.9-.22,1.11.06s.82.73,1.07,1.17A2,2,0,0,1,260.27,223.74Z" transform="translate(-117.34 -135.11)"/><path class="cls-20" d="M218.12,227.08a.49.49,0,0,1,.17,0S218.19,227.08,218.12,227.08Z" transform="translate(-117.34 -135.11)"/><g class="cls-21"><path class="cls-22" d="M225,201.55a3.46,3.46,0,0,1-1.05.53c-.42.11-1,0-1.37.26s-.35.47-.82.61c-.26.07-.37,0-.61.14s-.2.32-.35.42a6.21,6.21,0,0,1-1.21.26c-.5.16-.63.28-1.1.11a1,1,0,0,0-.6-.17c-.23,0-.48.07-.71.11a14.66,14.66,0,0,1-1.48.22,2.23,2.23,0,0,0-1.25.23c-.42.25-.65.56-1.15.59a24.57,24.57,0,0,0-2.51.38,10.85,10.85,0,0,1-1.31.27c-.59,0-.6.21-1,.48a2.76,2.76,0,0,1-2.24.23c-1-.16-1.81.36-2.73.55l-.6.1A54.84,54.84,0,0,1,225,201.55Z" transform="translate(-117.34 -135.11)"/><path class="cls-23" d="M190.66,218.23c.66-.87,1.94-.78,2.72-1.59a1.7,1.7,0,0,1,1.38-.76c.31,0,.56.17.82.17s.53-.22.86-.23c.28-.49.52-1.24,1-1.5a4.34,4.34,0,0,1,2-.5,1.15,1.15,0,0,1-.6,1.18,7.36,7.36,0,0,0-1.1,1.14c-.34.35-.94.46-1.14,1-.09.22,0,.54-.1.76s-.38.32-.38.59c.37-.07.43.16.27.39s-.54.2-.71.29a3.65,3.65,0,0,0-1.27,1c-.53.6-.7.19-1.35.06a16.28,16.28,0,0,0-1.69.1c0-.61,1-.47,1.3-.8s.16-.5.37-.73a1.39,1.39,0,0,1,.67-.26c.43-.12.31,0,.59-.33s.11-.34.45-.49.48-.08.69-.28.13-.44.4-.58c-.56-.15-1.16.48-1.54.8a3.08,3.08,0,0,1-1.52.61,3.66,3.66,0,0,0-.81,0c-.22.06-.45.19-.66.27a13.74,13.74,0,0,1-1.58.59C189.83,218.78,190.49,218.47,190.66,218.23Z" transform="translate(-117.34 -135.11)"/><path class="cls-24" d="M189.26,232.69c.34-.37.83-.63,1.17-1s.24-1-.34-1c-.27,0-.61.34-.7.56s0,.58-.26.85-.53.29-.68.55-.19.66,0,.73S189.13,232.82,189.26,232.69Z" transform="translate(-117.34 -135.11)"/><path class="cls-25" d="M195.55,240.85c.37-.1.94.26,1.24.43s1,.17.74.61-.87.09-1.15,0-.31-.39-.53-.52-1-.23-.33-.48Z" transform="translate(-117.34 -135.11)"/><path class="cls-26" d="M202.48,243.62c-.12-.7.76-.29,1-.21.48.16.68-.21,1.13-.27,0,.25-.31.36-.44.56s-.08.47-.54.54S202.61,244.3,202.48,243.62Z" transform="translate(-117.34 -135.11)"/><path class="cls-27" d="M223.12,275.45c-.18-.25-.83,0-1.1-.1s-.66-.36-.86-.11.14.58.38.66S223.46,275.94,223.12,275.45Z" transform="translate(-117.34 -135.11)"/><path class="cls-28" d="M215.83,299.23c-1.4-.15-1,1-1.7,1.58s-1.89-.26-2.64-.18c-.48,0-2.08.71-2,1.23.05.91,1.88.6,2,1.64-.53.36-1.22.3-1.28,1.06a5.31,5.31,0,0,0,.41,1.55c.3.68.68.52,1.4.58.57.05,1.3.58,1.82.35,1.17-.53.89-2.25,1.52-3.07.28-.37.5-1.19.83-1.46s1.07-.09,1.48-.74c-.21-.12-.33-.28-.65-.25C217,300.76,216.66,299.33,215.83,299.23Z" transform="translate(-117.34 -135.11)"/><path class="cls-29" d="M254.31,277.05l-.09-.08c-.61-.39-1.17.54-1.13.56s.14.14.32.18c.22.45-.24.82-.39,1.21a4.62,4.62,0,0,0-.18,1.54c-.77.28-.25,1.13.51,1a4,4,0,0,0,1.72-1.13,1.64,1.64,0,0,0,.24-1.81c-.19-.33-.54-.5-.75-.8S254.45,277.23,254.31,277.05Z" transform="translate(-117.34 -135.11)"/><path class="cls-30" d="M267,275.72c-.18.14-.26.3-.16.47s.68-.06.88,0c.47.24.51.25.14.87s-.81.88-.14,1.41.9.07,1.25,1a5.79,5.79,0,0,0,.3.92c.18.29.59.42.77.71.36.6-.17,1.22.05,1.83.47,1.26,2.05,1.15,3,.65s2.33-1.93,2.11-2.94c-.37.34-1.35,2.11-2,1.65s.19-1.06.37-1.41a2.2,2.2,0,0,0,.29-1.38.64.64,0,0,0-.47-.08c-.09.39-.12,1.21-.65,1.12.05-.49-.41-.56-.49-1-.05-.3.48-.43.13-.91-.45-.63-1.56-.13-2.13-.49-.8-.52-.7-1.73-1.27-2.4C268.54,275.25,267.42,275.38,267,275.72Z" transform="translate(-117.34 -135.11)"/><path class="cls-31" d="M279.31,267.7c-1.59,0-1.08,1.53-1.41,2.46-.17.48-.7.76-.95,1.16a6,6,0,0,0-.51,1.3c-.11.5.23,1,0,1.55s-.7.71-.83,1.31a6.94,6.94,0,0,1-.3,1.56,3,3,0,0,0-.5,1.46c1.26.3,1.59-1.71,2.11-2.44.7-1,1.49-1.75,1.56-3a8.15,8.15,0,0,1,0-1.56c.12-.54.35-1.12.51-1.62a17.42,17.42,0,0,0,.81-3.61,6.61,6.61,0,0,0,0-.89C278.93,265.39,279.48,267.17,279.31,267.7Z" transform="translate(-117.34 -135.11)"/><path class="cls-32" d="M277.76,247.35c-.07-.33-.33-.61-.43-.94a3,3,0,0,1,0-1.15,4.82,4.82,0,0,0-.26-2.13c-.15-.43-.34-.86-.45-1.3s-.13-1-.29-1.44a2.74,2.74,0,0,0-.89-1.21,3.19,3.19,0,0,1-.61-.76l-.3-.49a11.18,11.18,0,0,1-.61-1.06c-.14-.34-.33-.67-.48-1a4.3,4.3,0,0,1-.13-1c-.14-.77-1.11,0-1.61-.66a1.69,1.69,0,0,1-.17-.29,2.1,2.1,0,0,1-.14-1c0-.34.28-.85.64-.43.18.22,0,.75.29.95s.09-.75.09-.92c0-1.24.88.14,1.05.58a1.59,1.59,0,0,1,.12.41c.1.52,0,1,.1,1.59a2.39,2.39,0,0,0,.45.9c.16.28.24.82.53,1s.27-.15.33-.45.22-.69.65-.71a1.09,1.09,0,0,0-.41-1,4.37,4.37,0,0,1-.62-.71,1.55,1.55,0,0,1-.24-.86c0-.16,0-.32,0-.48a4.68,4.68,0,0,0-.59-2.1c-.13-.21-.89-1.38-.62-1.55s.48.27.65.37a1.2,1.2,0,0,0,.79.14,55,55,0,0,0-4.83-7.22,54.14,54.14,0,0,0-3.88-4.41,3.28,3.28,0,0,0-.31-.2c-.33-.19-.72-.34-1.06-.51a1.46,1.46,0,0,1-.38-.17c-.1-.07-.13-.25-.25-.32-.27-.17-.68-.13-1-.25a6.53,6.53,0,0,1-.87-.45,5.56,5.56,0,0,1-1.79-2,14.17,14.17,0,0,1-.91-1.83c-.73-.55-1.49-1.08-2.25-1.59a54.89,54.89,0,0,0-9.48-5.07.91.91,0,0,0-.1.42c0,.21.48.66.62.82s.72.42.65.74-.58.14-.82.12a6.7,6.7,0,0,1-1,0c-.33-.11-.5-.38-.91-.4-.94-.06-1,1.19-1.89,1.27a4.52,4.52,0,0,1-2.32-.22,1.73,1.73,0,0,0-1.29-.32c-.62.08-.94.15-1.42-.24a6.64,6.64,0,0,0-1.19-.75c-.34-.17-.76-.23-1-.55s-.18-.48-.48-.74-.38-.27-.81-.2-.65-.05-.89.2-.11.3-.21.44-.12.16-.38.25a2,2,0,0,1-1.12,0c-.31-.07-.75.05-1.05,0a3.19,3.19,0,0,1-.87-.7,1.07,1.07,0,0,0-1-.28,3.51,3.51,0,0,0-1.07.16c-.42.17-.27.51-.52.82s-.69.2-1.07.2a2.26,2.26,0,0,0-1.19.42c-.27.18-.52.6-.25.89,0,0,.49.21.49.21a.9.9,0,0,0,.5.08c.31,0,.67-.44,1-.29.54.23.05.61.05.6-.23.14-.68.26-.84.49s0,.47-.33.63a1.58,1.58,0,0,1-.78,0c-.36,0-.58.05-.7.36a3,3,0,0,1-.32.65,1,1,0,0,0-.22.66c.07.36.44.35.71.54.56.4-.55.57-.82.63s-.27.22-.33.52a.31.31,0,0,1-.49.25c-.61-.34.23-.72.22-1,0-.61-.8-.16-.95.17a1,1,0,0,0,0,.62c.05.28,0,.36-.19.57a3.25,3.25,0,0,1-1.2-.24,1.07,1.07,0,0,0-.79,0l-.38.16c-.3.12-.17.2-.34.41s-.44.13-.62.05-.33-.25-.63-.24-.5,0-.52.27.21.28.39.38.32.33,0,.39c-.59.1-.6-.68-1-.77s-1,.44-1.42.6-.65-.17-1.06-.19a1.16,1.16,0,0,0-1,.58c-.07.17,0,.44,0,.62s.12.31.35.44c.5.31.21,1.22-.37,1.31a1.11,1.11,0,0,1-.73-.28c-.21-.17-.15-.36-.14-.59a.88.88,0,0,1,.16-.58c.11-.14.35-.23.4-.41.15-.5-.72-.42-1-.58s-.43-.67-.87-.78c-.28-.07-1-.22-1.17.08a3,3,0,0,0-1.08.9c-.19.22-.25.49-.5.66s-.44.16-.46.38a1.18,1.18,0,0,0,.08.31,4.69,4.69,0,0,0,.92,0,1.54,1.54,0,0,1,.43,0c.15.05.22.17.36.21a2.13,2.13,0,0,0,1-.18,1,1,0,0,1,.74,0c0,.19,0,.5-.2.65s-.44.1-.65.08-.52,0-.79,0-.7-.28-1.06-.33a2.32,2.32,0,0,0-.82.14,6.77,6.77,0,0,0-.89.21c-.25.12-.39.37-.05.41s.67-.11.78.16-.13.43-.2.59-.2.4-.45.44c-.79.11,0-.63-.5-.78a1.28,1.28,0,0,0-.93.17c-.23.15-.27.31-.4.53s-.59.4-.76.69-.09.39-.26.54-.41.07-.64.08-.35.16-.57.25-.36-.06-.54-.09-.36,0-.52-.09-.11-.32-.23-.45-.51-.11-.72-.12a.81.81,0,0,0-.53.09,2.08,2.08,0,0,1-.58.36,1.54,1.54,0,0,1-1-.09.33.33,0,0,1-.14-.48c0-.08.12-.14.15-.23a2.66,2.66,0,0,0,0-.28c.05-.29.22-.44.49-.36a3.8,3.8,0,0,1,.51.13,1.47,1.47,0,0,0,.49.19,4.35,4.35,0,0,0,.52-.1c.19,0,.36.05.55,0a6.21,6.21,0,0,0,.7-.31,1.22,1.22,0,0,1,.57-.2.89.89,0,0,0,.61-.25c.18-.17.25-.36.48-.49a2.4,2.4,0,0,1,.82-.31,2.85,2.85,0,0,0,.65-.05.72.72,0,0,0,.45-.48c.1-.27.48-.39.68-.6s.07-.5.22-.77a4.61,4.61,0,0,0,.38-.65c.14-.35.37-.45.68-.61a3.22,3.22,0,0,1,.84-.34,1.53,1.53,0,0,1,.76.19c.53.17.89-.29,1.4-.31a1.69,1.69,0,0,1,1.16.54c.28.33.61.59,1.07.32s.68-.59,1.14-.55a2.4,2.4,0,0,1,.52.16,1.2,1.2,0,0,0,.65,0,5.81,5.81,0,0,0,.94-.2c.23-.1.14-.2.19-.42s.16-.43.41-.34c.1,0,.17.21.28.24a.94.94,0,0,0,.29,0c.45,0,.78.25,1.23.09a2.49,2.49,0,0,0,.59-.23l.08-.05a.89.89,0,0,1,.44-.3,3.15,3.15,0,0,1,1,.11c.2,0,.59.24.74,0-.13-.24-.78-.12-.7-.45s.28-.12.19-.35-.26-.23-.36-.3c-.32-.24-.59-.73-1-.74a.8.8,0,0,1-.54-.12c-.16-.14-.21-.29-.43-.38s-.57-.13-.63-.3.07-.34,0-.53-.29-.24-.47-.34-.19-.23,0-.4.05-.15.22-.19a.7.7,0,0,1,.38,0c.21.09.18.35.32.51a2.07,2.07,0,0,0,.25.19c.13.11.11.25.2.36a.23.23,0,0,0,.31,0c.14-.08.1-.08.1-.22a1.67,1.67,0,0,0-.06-.39c-.06-.13-.21-.14-.18-.31.05-.34.38-.28.55-.1s.35.24.47.41.14.36.42.47a1.08,1.08,0,0,0,.77,0c.3-.15.19-.37-.06-.47a3.13,3.13,0,0,1-1.13-.55,2.24,2.24,0,0,1-.21-.6c-.09-.26-.22-.29-.47-.45a2.67,2.67,0,0,0-1.2-.4c-.22,0-.47,0-.66-.09a2.25,2.25,0,0,0-.49-.37,3.65,3.65,0,0,1-.35-.14c-.1-.06-.2-.19-.3-.22s-.41.12-.6.16-.65,0-.94.16-.31.34-.55.31-.17-.12-.29-.17-.22,0-.31,0-.38-.21-.62-.18a1.52,1.52,0,0,0-.57.34,1.88,1.88,0,0,1-.45.22c-.12.05-.48.1-.55.21s.06.26.11.35a1.16,1.16,0,0,0,.2.32c.14.11.35.08.51.1a2.87,2.87,0,0,1,.51.21.94.94,0,0,0,.7,0,3.58,3.58,0,0,1,.93-.09c.11,0,.63-.08.57.07s-.36.14-.44.18a2.94,2.94,0,0,0-.47.34c-.22.14-.43,0-.67,0a2.06,2.06,0,0,0-.43,0c-.08,0-.11.1-.17.14a2.64,2.64,0,0,1-.61.23.59.59,0,0,1-.71-.19.48.48,0,0,0-.52-.12.66.66,0,0,0-.53.46c0,.21.2.38,0,.57s-.43.14-.59.21-.39.25-.62,0a3.87,3.87,0,0,1-.37-.53c-.14-.19-.38-.29-.51-.49-.28-.48.19-1-.31-1.4-.2-.17-.33-.4-.55-.5a2.07,2.07,0,0,0-.88-.21,3.13,3.13,0,0,1-.75.07,1.18,1.18,0,0,1-.68-.28.59.59,0,0,0-.54-.16c-.3,0-.61,0-.91,0s-.75.35-1.16.45a3,3,0,0,0-.53.22,7.58,7.58,0,0,1-.77.24c-.21.06-.28.21-.39.38s-.44.38-.56.63a4.07,4.07,0,0,0-.14.58c0,.13-.2.35-.18.45a2.25,2.25,0,0,0-.12.21,5.09,5.09,0,0,1-.34.47,1.29,1.29,0,0,0-.18.82,1,1,0,0,1-.24.63c-.1.14-.15.28.06.36s.38-.08.57-.14a1.69,1.69,0,0,0,.49-.2c.26-.15.32-.07.58-.06s.37-.12.59,0c-.18.39-.52.52-.86.76-.19.13-.17.29-.29.45a.89.89,0,0,1-.13.14c-.08.08-.14.14,0,.3s.29.17.23.34-.3.27-.38.36c-.26.33-.72.39-1,.68a1.43,1.43,0,0,1-.41.31,4.07,4.07,0,0,0-.55.28c-.12.07-.38.15-.44.29s.18.2.34.18a4.15,4.15,0,0,0,1.06-.12,2.08,2.08,0,0,1,.58-.19c.18,0,.31.06.49.07.36,0,.59.22,1,.12a1.45,1.45,0,0,0,.49-.22c.11-.08.19-.22.34-.15-.05.4.43.12.56.11.36,0,0,.43-.06.59a5.35,5.35,0,0,1-.29.47c-.13.15-.29.19-.32.41s.05.29-.11.47-.33.19-.45.33-.13.21-.32.22-.29-.08-.48,0-.25.29-.39.27,0-.46.12-.53.5-.18.71-.35a3.44,3.44,0,0,0,.7-1.09,2,2,0,0,0-1.13.26,3.62,3.62,0,0,0-1.85,1.44c-.24.36-.38.78-.76,1a3.17,3.17,0,0,1-1.27.09,4.37,4.37,0,0,0-1.31.07c-.49.16-.7.68-1.15.85s-.81,0-1.24.3a2.22,2.22,0,0,1-.51.31c-.24.07-1.3,1-1.26.18-.31,0-.42.25-.38.52-.39.08-.53-.33-.87-.37a.85.85,0,0,0-.8.55c-.14.37.11.7.05,1.05a5.85,5.85,0,0,1-.44.86,2.92,2.92,0,0,1-.45.92c-.22.28-.38.59-.61.87a4,4,0,0,1-.82.65c-.59.17-.51-.32-.71-.63s-.29-.22-.43-.38a1.59,1.59,0,0,1-.27-.39c-.16-.3.06-.38-.34-.4a.78.78,0,0,0-.52.25c-.28.26-.36.74-.57,1.06a11.52,11.52,0,0,1-.92,1c-.24.29-.43.59-.69.88s-.9.6-1.06.92.08.8-.21,1.2-.72.67-.12,1c-.2.35-.58.63-.36,1.07.51-.09.56.23.77.6,0,0,.07-.05.09-.05.26.09.9-.23,1.16-.31a2.64,2.64,0,0,0,1.12-.46c.29-.3.31-.76.55-1.08a3.94,3.94,0,0,1,1-.78c.76-.52,1.55-.37,2-1.2.18-.35.39-.88.94-.64.28.11.42.56.67.81a9.25,9.25,0,0,0,1.46-.58c.56-.25,1-.24.88.53-.07.44-.44.62-.55,1a5.42,5.42,0,0,0-.11,1.26c0,.85.61,1.43.89,2.17.37,1-.14,1.48-.67,2.2-.27.35-.4.57-1,.49s-.6-.54-1-.6c-.57-.1-.66.41-.45.78.12.2.4.33.49.54s0,.43.13.64c.16.41.53.58.83.13s-.06-.74.53-.93c.2-.07.52.08.7,0s.17-.35.3-.47c.3-.31.67-.28.81-.72.07-.26-.16-1.19.43-1.1.29,0,.18.7.7.76a4.44,4.44,0,0,0,.18-.76c0-1-.61-1.34-.95-2.18-.18-.47,0-.83,0-1.31a7.09,7.09,0,0,1,.1-1.31c.09-.5.06-.78.61-.88s.76.17.71.72a3.36,3.36,0,0,0-.06,1.3c.11.42.34.74.44,1.15s.39.66.49,1c.14.53-.2.72-.42,1.1a7,7,0,0,0-.55,1.09c-.13.4.07.89,0,1.3a10.26,10.26,0,0,1-.22,1.21c-.05.35-.34.85-.27,1.19s.27.28.38.5.08.41.21.6.7.61,1,.34c.1-.11.08-.45.17-.6s.29-.18.38-.34c.28-.48,0-.63.53-.93s.68-.32.34-.83-.54-.35-.45-1,.31-.44.88-.59a5.33,5.33,0,0,1,1.09-.34c.54,0,.61.15,1,.4s.66.13,1.07.05c.25-.06,1-.19,1.06.21.15.64-.63.31-.86.26-.53-.1-2.18-.55-2.12.54,0,.44.57.47.14.93s-.72,0-.69.72c0,.5.42.55.49.93s-.46.83-.16,1.19a.55.55,0,0,0,.38.15c.29,0,.64-.08.87.06.38.24.19.65.5,1,.94,1,.95-.89,1.68-.19.27.26.27.73.67.95a2.26,2.26,0,0,0,1.3.13c.37-.09.61-.42,1-.34.18,0,.25.27.49.28s.5-.24.54-.22c.49.17-.22.75-.38.93-.38.42-.3.6-.33,1.2,0,.9-.72,1.46-1.24,2.19s-.71,1.35-1.55,1.68c-.61.23-1.83.39-2-.58-.51-.1-1-.56-1.53-.46s-.79.61-1.41.23a7.21,7.21,0,0,1-1.2-1c-.52-.57-.75-.26-1.46-.39,0-.56.06-.78-.5-1-.18-.08-.4-.06-.56-.2s-.08-.22-.21-.45a3.11,3.11,0,0,0-.56-.86,1.41,1.41,0,0,0-2.12.42c-.15.51,0,.79-.49,1.19s-.62.41-1,.08-.47-1.42-1-1.71-.71,0-.67-.76a2.5,2.5,0,0,0-.09-1.27c-.19-.4-.51-.42-.81-.6a1.25,1.25,0,0,1-.66-1c-.28-1.16.38-1,.9-1.86.2-.31.76-1.88.52-2a4,4,0,0,0,0-.59c-.16-.75-.47-.2-.87-.27s-.22-.24-.43-.34-.34-.07-.56-.15c-.38-.14-.53-.44-.8-.67s-.6-.31-1.11-.37a1.08,1.08,0,0,1-.6-.18c-.12-.11-.05-.47-.23-.52-.37-.1-.17.26-.32.37a2,2,0,0,1-.54.22c-.32.1-.1.23-.48.1a1.08,1.08,0,0,1-.38-.33c-.17-.34.12-.77-.13-1.12-.62-.06-1.25.63-1.64,1.06a13.58,13.58,0,0,0-1.53,1.7,7.85,7.85,0,0,0-.38,1.05,4.12,4.12,0,0,1-.69.82,3.81,3.81,0,0,1-.66.67c-.4.22-.63.1-.92.53-.84,1.22-1.49,2.57-2.34,3.79a54,54,0,0,0-1.56,7.57,55.07,55.07,0,0,0-.48,7.31,54.14,54.14,0,0,0,.4,6.66l.2.26a3.23,3.23,0,0,1,.52.83c.16.41.11.49.61.49,0-.12,0-.14,0-.24.33,0,.46.2.72.33s.54,0,.75.28a1,1,0,0,1,.17.39,1.47,1.47,0,0,0,.17.46c.24.34.43.14.76.34s.17.47.29.81.27.35.22.74c-.11.75.11.93.77,1.23s1,.53.84,1.35c-.07.49-.08.51.26.85a.85.85,0,0,1,.33.91c-.06.33,0,.79-.05,1.1-.17.55-.33.09-.53-.16s-.42-.67-.69-.63c-.45.08-.23.5-.12.71.21.41.28.48.05.9a1.13,1.13,0,0,0-.17,1.06c.1.32.17.68.44.83s.73.06,1,.21.3.49.5.72a2.67,2.67,0,0,1,.55.83,7.68,7.68,0,0,0,.38,1,7.57,7.57,0,0,0,.61.79l.09.11a2.69,2.69,0,0,1,.45,1.11c.12.65.42,1.28.49,1.92a6.71,6.71,0,0,0,.87,2.42c.16.3.23.59.36.9s.37.58.37.9a4.22,4.22,0,0,0-.08.94c.07.43.22.51.49.82.53.59.67,1.46,1.15,2.09s.88,1.26,1.3,1.89a5.79,5.79,0,0,0,.71.69,4,4,0,0,1,.53.86,6,6,0,0,1,.67,1.51,55.64,55.64,0,0,0,8.09,6.58,54.51,54.51,0,0,0,11.49,5.85c-.27-.19-.54-.32-.85-.52-.47-.3-.87-.72-1.35-1s-.5-.25-.73-.63a1.27,1.27,0,0,0-.62-.65c-.35-.16-1.44-.66-1.48-1.11a1,1,0,0,1,.41-.76c.3-.2.72-.08,1-.26.7-.48-.74-1-1-1.27s-.28-.35-.7-.37c-.22,0-.44,0-.54-.07s-.1-.15-.08-.34a2.64,2.64,0,0,1,1.55-.54.72.72,0,0,1,1-.4c.27.15.21.26.54.29a2.87,2.87,0,0,0,.65-.12c.34-.05.63.11.94,0s.41-.35.83-.08c.17.12.64.7.72.21,0-.2-.39-.64-.51-.79s-.56-.45-.72-.72,0-.53,0-.87-.1-.45-.38-.76.06-.61,0-1.08a3.45,3.45,0,0,0-1.1-1.48c-.28-.19-.61-.29-.75-.62l0-.11c-.1-.35.18-.57.16-.9s-.31-.42-.53-.65-.2-.52-.13-.87c0-.2.09-.71.37-.74s.23.53.38.74c.31-.17,0-1,.2-1.18.43-.36-.24-1,.32-1.29s1,.25,1.48,0,.52-1.13,1-1.5a12.12,12.12,0,0,1,1.63-1.08,11.54,11.54,0,0,1,1.57-.79,6.13,6.13,0,0,0,1.7-.75,12.12,12.12,0,0,1,1.56-1.24,3,3,0,0,0,.83-.47,8.1,8.1,0,0,0,.55-.84c.43-.54.75-1.12,1.17-1.66.29-.36.86-1.48,1.34-1.53a10.62,10.62,0,0,1,.17-1.38,1.4,1.4,0,0,0,.44-.22c.07-.32-.2-.6-.2-.94s.28-.49.28-.74-.41-.47-.73-.36-.43.39-.7.53c-.58.32-1.27.08-1.92.17-.36,0-.64.19-1,.2s-.66,0-1,.07c-.71.08-1.31-.59-2-.4-.22.06-.3.25-.53.29a1.63,1.63,0,0,1-.49-.09,1.21,1.21,0,0,1-.73-.62c-.37-.54-.1-1.18-.5-1.75-.23-.32-.59-1.31-.9-1.35-.12-.5-.76-.74-1-1.18a4.84,4.84,0,0,1-.12-.91,2.62,2.62,0,0,0-.37-.75,1.35,1.35,0,0,0-.71-.48c-.15,0-.16.11-.4-.05a.92.92,0,0,1-.24-.28c-.31-.59.05-1.41-.13-2a3.89,3.89,0,0,0-1.12-2c-.32-.22-.53-.13-.72-.5a3.81,3.81,0,0,1-.21-.9,6.34,6.34,0,0,1,.21-2.25c.11-.83-.32-1.19-.75-1.75a3,3,0,0,1-.45-.75c-.1-.37.08-.56.24-.83.4-.67,0-1.14-.27-1.79a6.64,6.64,0,0,1-.58-2.21,4.45,4.45,0,0,0-.38-1.88,4.55,4.55,0,0,1-.48-1.81,6.69,6.69,0,0,1,0-2c.19,0,.17.07.24.2.28.54,0,1.44.09,2a8.56,8.56,0,0,0,.77,1.73c.18.45.31.34.58,0a2,2,0,0,0,.32-.78c.1-.38.47-1.51.93-1.55a6,6,0,0,1-.61,1.71c-.11.27-.43.63-.31.94s.43.47.56.7a5.11,5.11,0,0,1,.5,1.68,11.05,11.05,0,0,1,.37,2.29c.06,0,.13-.21.16-.24.16.4-.09.78.05,1.13s.46.31.67.55a4.48,4.48,0,0,1,.51,1.18,2,2,0,0,1,.37,1.15c-.07.37-.34.63-.38,1a6.37,6.37,0,0,0,0,1.07c.14.87,1,.83,1.35,1.47a5.36,5.36,0,0,1,.38,1c.12.35,0,.76.09,1.11.18.63.86.92,1.18,1.44a5.19,5.19,0,0,1,.32,2.12,3,3,0,0,0,.12.74c.07.16.2.23.25.41a2.62,2.62,0,0,1-.15,1.11,2.29,2.29,0,0,0,.71,1.92c.37.36.62.08,1.08.08s.61.17.94,0,.14-.51.36-.83.63-.2.92-.17a1.28,1.28,0,0,0,.94-.1c.35-.22.46-.47.88-.29s.47.44.8.21.24-.58.6-.75.68,0,1-.08.58-.56.82-.42c.28-.06.54-.23.82-.28s.62,0,.9,0c.69-.16.51-.93.94-1.19a6.43,6.43,0,0,1,.74-.24,2.68,2.68,0,0,1,.94-.13,4.23,4.23,0,0,0,.94,0c.39-.07.4-.25.58-.53s.45-.35.89-.33.81.08,1-.2-.15-.7.23-1,.58.06,1,0c.7,0,.29-1.26.41-1.72.06-.24.26-.77.54-.71s.29.46.68.41a4,4,0,0,1,1-1.87c.64-.68.68-1-.08-1.55-.34-.25-.55-.33-.74-.71s-.2-.62-.66-.69a2.92,2.92,0,0,1-1.84-.62c-.53-.55-.28-1.3-.25-2,0-.27,0-.85-.37-.78s-.47.64-.62.82a6.07,6.07,0,0,1-1.59,1.22c-.44.28-.3.29.13.45s.46.31,0,.42a3.66,3.66,0,0,1-1,0c-.33-.05-.5-.27-.81-.33-1-.22-.79.6-1.2,1.1s-.53-.07-.4-.4.23-.14.25-.37-.13-.23-.25-.33-.31,0-.33-.25.21-.2.3-.32a1.25,1.25,0,0,0,.11-.95c-.07-.68-.09-1.35-1-1.18a11,11,0,0,0-.13,1.42c-.45-.29-.4-1.11-.4-1.59,0-.74-.43-.93-.73-1.56a6.75,6.75,0,0,1-.7-1.64c-.05-.31-.14-.57-.22-.89s0-.43.34-.65.47-.28.89-.08.54.12.82.24c.69.26.55,1.12.75,1.66.06.16.16.27.2.42s0,.41.08.58.45.35.73.45a1.56,1.56,0,0,1,.5.17c.14.11.13.23.25.35a5.25,5.25,0,0,0,.69.53c.34.19.65-.06,1,.06s.39.49.79.57c.8.14,1-.8,1.72-.82,1,0,1,.76,1,1.48s1,.69,1.59.86,1.44.09,2.13.23,1.16.66,1.88.55a6.22,6.22,0,0,1,2-.34,2.16,2.16,0,0,0,.94.07,6.51,6.51,0,0,1,1.39-.23c.22-.14.79.11,1,.21a1,1,0,0,1,.57.74c.11.32.08.66.38.84s.66,0,.94.25.25.62.48.83a1.18,1.18,0,0,0,.87.16,1.36,1.36,0,0,0,.85-.42,4.93,4.93,0,0,1,.87-.4c.23-.13.55-.53.25-.78s-.69.15-.9.29c-.4.27-1.7.67-2,.07-.25-.44.36-.27.56-.24a1.58,1.58,0,0,0,1-.05c.43-.2,1.46-1.39,1.76-.73.11.27,0,.66.13.94s.3.52-.09.74-.67.05-1,.2a.66.66,0,0,0-.45.54c-.16.51-1.58.54-1,1.1.18.18.52.21.75.37s.32.51.55.79c.37.43,1.41.12,1.73-.29.17-.22.25-1,.58-1s.15.56.24.78.5.43.61.71-.17.87-.25,1.2a3.17,3.17,0,0,0,0,2.27c.15.28.47.46.46.82s-.26.58-.29.91c-.07.86.77,1.59,1,2.36a5.58,5.58,0,0,0,.29,1c.15.27.48.55.66.81a9.36,9.36,0,0,1,1.06,2.18,3.66,3.66,0,0,0,.61.9c.3.4.19.69.29,1.14.13.69,1,1.32,1.55.58.21-.28.1-.69.34-1s.69-.28.93-.55.14-.67.38-.92.55-.21.73-.58c.32-.66-.15-1.38.25-2a1.55,1.55,0,0,0,.36-.87c0-.41-.22-.62-.33-1a3.32,3.32,0,0,1,.38-2.49,2,2,0,0,1,1.05-.84,1.84,1.84,0,0,0,.74-.52,2.75,2.75,0,0,1,.28-1.07c.25-.42.8-.53,1.12-.89s.35-.87.65-1.28.37-.81.65-1.15a1.45,1.45,0,0,1,.66-.45c.4-.16.46-.26.71-.64s.33-.39.28-.83-.1-.56.19-.83a1.38,1.38,0,0,1,.78-.35,2.08,2.08,0,0,0,1-.3c.31-.24.77-1.9,1.19-1.75s.68,1.47.9,1.8c.46.68,1.09.93,1.44,1.68.11.24.49.41.54.61s-.47.41-.65.62-.28.8.07.94.63-.22.94-.16c0,.68-.4,1.34-.15,2,1.78.23,1.26-1.55,2.24-2.37.38.35.44,1.23.52,1.71s.63,1.06.55,1.65a12.12,12.12,0,0,0-.25,2.5,11,11,0,0,1,0,1.15c0,.38-.24.8-.13,1.19s.84,1,1.19,1.36c.58.56.23,1.18.17,1.87a1.63,1.63,0,0,0,.24.94c.14.33.08.75.46.9s.57,0,.89.22.52.42.82.11c.69-.71-.64-1.16-.76-1.72-.09-.38.27-.65.44-.95a1.34,1.34,0,0,0,.11-1.14c-.22-.66-.9-.79-1.27-1.35a6.54,6.54,0,0,0-.48-.82,1.56,1.56,0,0,1-.36-.82,4.74,4.74,0,0,1,.16-2.33c.13-.58-.13-1.5.17-2,.38-.05.2.56.28.81a.78.78,0,0,1,.4-.08c.05.33.32.2.54.2s.27,0,.48.17.22.31.46.46.27.11.38.4-.09,2.29.47,1.87c.19-.13.35-.88.46-1.1a3.76,3.76,0,0,0,.49-1.06c.06-.34,0-.61.2-.91s.41-.47.58-.72a2,2,0,0,0,.41-1.1c0-.51,0-1,0-1.52a4.58,4.58,0,0,0-.07-1.81,9.37,9.37,0,0,0-1-1.84,5.34,5.34,0,0,1-1-1.81,2.6,2.6,0,0,1,.16-1.8,5.53,5.53,0,0,0,.46-.82c.09-.34,0-.72.1-1.06.36-1,.82.41.79.86,0,.69-.57,1.22-.38,2,.25,1,.94.18,1-.41a3.1,3.1,0,0,0-.15-1.89,1.66,1.66,0,0,1-.1-1.81,8.09,8.09,0,0,0,.61-1c.13-.3.25-.6.39-.89a9.79,9.79,0,0,0,.48-3.15A5,5,0,0,0,277.76,247.35Zm-76.35,36.78c-.49-.15-1-1.25-1.23-1.68a2.39,2.39,0,0,1-.13-2c.33-.44.79,0,.76.31s-.25.64-.22,1.06C200.65,282.73,201.5,283.27,201.41,284.13Zm-5.22,1.33c.05-.11.23-.16.26-.28s-.09-.32,0-.5c.25-1.5,2-.33,1.86.82,0,.33-.11,1-.44,1.19a3,3,0,0,1-1,.07c-.39,0-.54,0-.69-.45A1,1,0,0,1,196.19,285.46Zm3.32,9.82c0-.33-.35-1.33-.33-1.37a3.14,3.14,0,0,1,1.16.2c.34.33.1.79.22,1.21.23.85,1.14,1.67,1.07,2.57-.67-.23-1.18-1.17-1.69-1.63A1.06,1.06,0,0,1,199.51,295.28Zm-3.44-47.14a1.24,1.24,0,0,1,.6-.12.88.88,0,0,1,.24,0c.08,0,.41.08.43.16s-.32.15-.4.19l-.1.06a.31.31,0,0,1-.1,0,1.47,1.47,0,0,0-.6.41c-.2.22.07.44-.35.44a.34.34,0,0,1-.38-.33A2.86,2.86,0,0,1,196.07,248.14Zm-11-10a.86.86,0,0,1,.32,0c.47.11.58.66.19.81S185,238.42,185.09,238.18Zm-.42-1.36s.11-.15.17-.16a.44.44,0,0,1,.15.05c0,.28,0,1.19-.4,1.22C183.89,238,184.57,237,184.67,236.82Zm-.39,23c.16,0,.61-.15.75-.09.05.53.3.48.54.87.08.12.25.53.08.64s-.3-.17-.43-.23a3.78,3.78,0,0,1-.94-.48C184.08,260.33,183.58,259.84,184.28,259.78Zm-3.38.83c.33-.06,1.15.76,1.29,1.09a4.12,4.12,0,0,1-.06,1.87.47.47,0,0,1,0,.14c-.14.43-.3.46-.65.22l-.06,0c-.35-.25-.38-.4-.31-.87a3.61,3.61,0,0,0,.15-1c-.07-.35-.39-.78-.5-1.14C180.71,260.83,180.88,260.66,180.9,260.61ZM195.48,291c-.42-.29-.41-.34-.66.07s-.35,1-.66.33.18-1.62.11-2.35-.76-1-1.19-1.54c.12-.25.39-.44.42-.7s-.21-.56-.21-.88c.6,0,.76.9.88,1.3a11.57,11.57,0,0,0,.79,1.67c.52,1,2.54,1.93,2.3,3.25-.31,0-.73-.36-1-.52S195.77,291.15,195.48,291Zm16.81-53.21a3.33,3.33,0,0,1-1.37,0c-.42-.21-.2-.74-.6-1a1.06,1.06,0,0,0-1.16,0c-.64.34-.57.43-1-.15a4,4,0,0,0-.87-.83,3,3,0,0,0-2.56-.25c0,.49-.33.49-.72.48a2.05,2.05,0,0,1-1.15-.25c-.2-.19-.1-.4-.25-.58s-.35-.1-.51-.24c-.63-.56-.19-1.47.45-1.81s.5-.18.8-.72a2.14,2.14,0,0,1,1-.83c.7-.39,1.16-1.85,2.24-1.52.32.1.48.51.77.66.09.05,1.08,0,.86.33s-.89-.07-1.13.22.17.59.23.88c.1.55-.28.47.25.81.23.14.69.33,1,.15s.11-.34.28-.44.25,0,.5,0,.91.07.59-.53c-.5,0-1.37.07-1-.77.21-.52,1-.29,1.44-.37s1.09-.21,1.68-.3a16.46,16.46,0,0,1,1.72,0,4.29,4.29,0,0,1-1.18.38,11.36,11.36,0,0,0-1.19.18,3.79,3.79,0,0,1-.06,1c-.36-.08-.67-.14-.82.23s.11.43.32.67.29.37.46.57a1.86,1.86,0,0,1,.42.67c.18.4.22.49.65.65a1.18,1.18,0,0,1,.76.56,1.11,1.11,0,0,1,0,1.52A1.71,1.71,0,0,1,212.29,237.74Zm1.42,3.81a2.37,2.37,0,0,1-1-.15c-.31-.42,1-.87,1.38-.83C214,240.8,214,241.43,213.71,241.55Zm1.92,1.63c0-.5-.71-1.19.15-1.42C215.92,241.85,216.31,243.55,215.63,243.18Zm8.42,19.87c0-.15.15-.51.35-.32a1.45,1.45,0,0,1,.24.35,1.69,1.69,0,0,1,.17.36s0,.07,0,.1.15.07.25.06a.25.25,0,0,1,.22.07,1.13,1.13,0,0,1,.22.53c.36,0,.5-.53.85-.58,0,.23-.4.75-.58.92-.36.33-.48.24-.89.06l-.1-.05a2.13,2.13,0,0,1-.45-.45,1.18,1.18,0,0,1-.3-.5A2,2,0,0,1,224.05,263.05Zm-2.28,2.78c.37-.4.64-.55.78-1.14s.22-1.23.88-1.19c.49,0,.69.76.55,1.3a.68.68,0,0,1-.57.57c-.31,0-.51.26-.75.47a5,5,0,0,1-.82.51c-.29.17-.5.69-.86.63C221,266.65,221.53,266.1,221.77,265.83Zm-4.72-48.78c-.24.09-.75-.34-.78-.56s.43-.74.49-1c.23,0,.69.43.7.64A2.76,2.76,0,0,1,217.05,217.05Zm7.74,13.74c.05,0,.32-.06.37,0,0,.34,0,1.46-.41,1.29S224.68,231,224.79,230.79ZM226,248.32c-.07.28.17.91,0,1.15-.33.48-.45-.32-.51-.55a1.45,1.45,0,0,1-.08-.85c.09-.29.35-.41.36-.73a1.11,1.11,0,0,0-.07-.31c-.11-.35-.28-.8.24-.9.2,0,.83.55.94.7C227.43,247.55,226.22,247.59,226,248.32Zm.17-6.57a2,2,0,0,0-1.75.07c-.73.67.3,2.1-.43,2.66s-2-.14-2.57-.2-.71,0-1.15-.38c-.17-.16-.13-.21-.38-.33s-.4,0-.6-.18c-.38-.28-.45-1.34-.36-2h0a2,2,0,0,1,.1-.45.8.8,0,0,0,.92-.23c.28-.42,0-.53.49-.76.24-.1.91,0,.6-.45-.2-.29-.76-.09-1-.33s-.17-.64-.28-1a3.11,3.11,0,0,0-.55-1c-.27-.35-.53-.55-.44-1.07s.29-.3.56-.66c-.2-.27-.55-.39-.73-.62a.49.49,0,0,1-.1-.47,3.46,3.46,0,0,1,1.09-1.26c1.32.22,0-1.21-.26-1.65a9.09,9.09,0,0,1-.38-.93,1.33,1.33,0,0,0-.27-.38c-.36-.34-.71-.27-1.1-.49-.11-.78.84-1.95,1.37-2.5a4,4,0,0,1,1.52-.86c.4-.15,1-.58,1.45-.51a7.42,7.42,0,0,1-2.09,1.37,2.92,2.92,0,0,0-1.56,1.69c-.21.71.75.87,1.22,1.37a.89.89,0,0,1,.16.22c.37.72.38,1.36,1,1.92s1.31.13,2.09-.06a1.68,1.68,0,0,1,1.21,0c.57.3.17.69.43,1.11s.71.08,1.09.27c.58.29.29.66-.11.82-.24.1-.37,0-.59.16s-.1.41-.24.55c-.29.3-.69.17-1.07,0,0-.89,1.24,0,1-1a3.07,3.07,0,0,0-1.84-.16c-.08.31,0,.68-.28.87s-.74.06-1,.15c0,.52.49.46.76.77s.17.79.54,1.08c.17.13.42,0,.56.23s-.05.49-.06.66c0,.35-.1,1.06.43.92,0-.34.12-.83.55-.82s.29.63.45,1c.28-.14,1,.11.75.56-.15.26-.83,0-1.09,0s-.79,0-.93.38c-.24.7.45.42.65.67s-.47.59.33.81a4.83,4.83,0,0,0,1.26,0c.53,0,1.84.66,2,1.25C227.05,242.59,226.64,242,226.21,241.75Zm1.92-2.78c-.57-.25-.32-1-.21-1.46h.21C228.82,237.65,228.55,239.15,228.13,239Zm3.48-3.69c-.24.23-.4.7-.63.88s-.55,0-.95,0-.42.31-.86-.06a.85.85,0,0,1-.29-.87c.06-.15.24-.24.29-.37s0-.3,0-.45c.27-.9.88-.51,1.58-.89,0-.4-.49-.27-.26-.74a.61.61,0,0,1,.76-.23c.27-.21.79-.35.83,0s-.3.42-.44.66c-.33.55,0,1,.58,1.2C232.2,234.93,231.92,235,231.61,235.28Zm1-24.86c-.46.43-.75.29-1.31.4s-.84.44-1.26.53a1.49,1.49,0,0,1-.76,0c-.4-.25,0-.13,0-.43s0-.28-.13-.52-.42-.3-.49-.44c-.28-.53.24-.63.65-.82.23-.11.26-.28.55-.26a3.8,3.8,0,0,1,.6.27c.4.52-.2.61-.59.72a.75.75,0,0,1,0,.15,5.25,5.25,0,0,0,1.19,0c.53-.12.6-.38.93-.6,0-.83.88-.42,1.05-.07A1,1,0,0,1,232.6,210.42Zm13.65,22.5a5.27,5.27,0,0,1-1.48,0c-.29,0-1.19-.13-1.38.14-.29.44.46.57.39,1a2.61,2.61,0,0,0-.74,0,6.92,6.92,0,0,0,.09,1.18,3,3,0,0,1-.81-1.3,1.42,1.42,0,0,1,.71-1.48,5.27,5.27,0,0,1,1.68,0,3.23,3.23,0,0,0,.83.05c.27-.06.59-.38.76-.33C246.93,232.26,246.5,232.84,246.25,232.92Zm11.9,5.58c-.21.2-.55,1.24-.86,1.13s-.2-1.16-.23-1.41-.11-.95.21-1.06a.23.23,0,0,1,.26.07c.17.21.19.73.67.66s.59-.55,1-.48C259.28,238,258.48,238.19,258.15,238.5Zm2.12-14.76a3.14,3.14,0,0,1-.81,1.09c-.39.18-1-.08-1.36-.17s-1.16-.4-.39-.59c.45-.11.76.41,1.11-.1a3.69,3.69,0,0,0,.21-1.32,1.34,1.34,0,0,0-.32-.92c-.14-.18-.72-.43-.76-.64-.19-.89.9-.22,1.11.06s.82.73,1.07,1.17A2,2,0,0,1,260.27,223.74Z" transform="translate(-117.34 -135.11)"/><path class="cls-33" d="M218.12,227.08a.49.49,0,0,1,.17,0S218.19,227.08,218.12,227.08Z" transform="translate(-117.34 -135.11)"/></g><path class="cls-34" d="M171.5,256.56a55,55,0,0,1,2.57-16.67c.22-.69.45-1.37.7-2.06a55.06,55.06,0,0,1,101.45-5h0a54.71,54.71,0,0,1,5.36,23.7,56,56,0,0,1-.83,9.58,55.05,55.05,0,0,1-53.15,45.45h-1.06a54.89,54.89,0,0,1-43.63-21.48,55.81,55.81,0,0,1-3.6-5.28h0q-.67-1.12-1.29-2.28A54.74,54.74,0,0,1,171.5,256.56Z" transform="translate(-117.34 -135.11)"/><path class="cls-4" d="M303.47,185.83a97.19,97.19,0,1,0-170.7,93c.48.88,1,1.75,1.47,2.6A91.31,91.31,0,1,1,262,319.06c.89-.46,1.77-.92,2.65-1.4h0a97.17,97.17,0,0,0,38.86-131.83" transform="translate(-117.34 -135.11)"/></g></g></svg>